<svg width="58" height="58" viewBox="0 0 58 58" fill="none" xmlns="http://www.w3.org/2000/svg">
<g clip-path="url(#clip0_3069_2288)">
<path d="M29 0C24.8571 0 24.8571 4.14286 24.8571 4.14286L9.32143 8.28571V12.4286L0 33.1429C0 37.2857 3.28118 41.4286 10.3571 41.4286C17.4331 41.4286 20.7143 37.2857 20.7143 33.1429L11.3929 12.4286H24.8571V53.8571H8.28571L4.14286 58H53.8571L49.7143 53.8571H33.1429V12.4286H46.6071L37.2857 33.1429C37.2857 37.2857 40.4879 41.4286 47.6429 41.4286C54.7978 41.4286 58 37.2857 58 33.1429L48.6786 12.4286V8.28571L33.1429 4.14286C33.1429 4.14286 33.1429 0 29 0ZM10.3571 16.5714L17.6071 33.1429H3.10714L10.3571 16.5714ZM47.6429 16.5714L54.8929 33.1429H40.3929L47.6429 16.5714Z" fill="white"/>
</g>
<defs>
<clipPath id="clip0_3069_2288">
<rect width="58" height="58" fill="white"/>
</clipPath>
</defs>
</svg>
