<svg width="114" height="114" viewBox="0 0 114 114" fill="none" xmlns="http://www.w3.org/2000/svg">
<circle cx="57" cy="57" r="57" fill="#0B63C5"/>
<g clip-path="url(#clip0_4465_8177)">
<path d="M57 28C52.8571 28 52.8571 32.1429 52.8571 32.1429L37.3214 36.2857V40.4286L28 61.1429C28 65.2857 31.2812 69.4286 38.3571 69.4286C45.4331 69.4286 48.7143 65.2857 48.7143 61.1429L39.3929 40.4286H52.8571V81.8571H36.2857L32.1429 86H81.8571L77.7143 81.8571H61.1429V40.4286H74.6071L65.2857 61.1429C65.2857 65.2857 68.4879 69.4286 75.6429 69.4286C82.7978 69.4286 86 65.2857 86 61.1429L76.6786 40.4286V36.2857L61.1429 32.1429C61.1429 32.1429 61.1429 28 57 28ZM38.3571 44.5714L45.6071 61.1429H31.1071L38.3571 44.5714ZM75.6429 44.5714L82.8929 61.1429H68.3929L75.6429 44.5714Z" fill="white"/>
</g>
<defs>
<clipPath id="clip0_4465_8177">
<rect width="58" height="58" fill="white" transform="translate(28 28)"/>
</clipPath>
</defs>
</svg>
