<svg width="114" height="114" viewBox="0 0 114 114" fill="none" xmlns="http://www.w3.org/2000/svg">
<circle cx="57" cy="57" r="57" fill="#020D1B"/>
<path d="M61.8333 33.4847V43.4669C61.8333 44.8203 61.8333 45.4971 62.0967 46.014C62.3284 46.4687 62.6981 46.8385 63.1528 47.0701C63.6698 47.3335 64.3465 47.3335 65.7 47.3335H75.6821M66.6666 59.4167H47.3333M66.6666 69.0834H47.3333M52.1666 49.75H47.3333M61.8333 32.8334H49.2666C45.2062 32.8334 43.1761 32.8334 41.6252 33.6236C40.261 34.3187 39.1519 35.4278 38.4568 36.7919C37.6666 38.3428 37.6666 40.373 37.6666 44.4334V69.5667C37.6666 73.6271 37.6666 75.6573 38.4568 77.2081C39.1519 78.5723 40.261 79.6814 41.6252 80.3765C43.1761 81.1667 45.2062 81.1667 49.2666 81.1667H64.7333C68.7937 81.1667 70.8239 81.1667 72.3747 80.3765C73.7389 79.6814 74.848 78.5723 75.5431 77.2081C76.3333 75.6573 76.3333 73.6271 76.3333 69.5667V47.3334L61.8333 32.8334Z" stroke="#F1F7FE" stroke-width="4.22" stroke-linecap="round" stroke-linejoin="round"/>
</svg>
