<svg width="58" height="58" viewBox="0 0 58 58" fill="none" xmlns="http://www.w3.org/2000/svg">
<path d="M33.8333 5.48474V15.4669C33.8333 16.8203 33.8333 17.4971 34.0967 18.014C34.3284 18.4687 34.6981 18.8385 35.1528 19.0701C35.6698 19.3335 36.3465 19.3335 37.7 19.3335H47.6821M38.6666 31.4167H19.3333M38.6666 41.0834H19.3333M24.1666 21.75H19.3333M33.8333 4.83337H21.2666C17.2062 4.83337 15.1761 4.83337 13.6252 5.62358C12.261 6.31866 11.1519 7.42777 10.4568 8.79194C9.66663 10.3428 9.66663 12.373 9.66663 16.4334V41.5667C9.66663 45.6271 9.66663 47.6573 10.4568 49.2081C11.1519 50.5723 12.261 51.6814 13.6252 52.3765C15.1761 53.1667 17.2062 53.1667 21.2666 53.1667H36.7333C40.7937 53.1667 42.8239 53.1667 44.3747 52.3765C45.7389 51.6814 46.848 50.5723 47.5431 49.2081C48.3333 47.6573 48.3333 45.6271 48.3333 41.5667V19.3334L33.8333 4.83337Z" stroke="#F1F7FE" stroke-width="4.22" stroke-linecap="round" stroke-linejoin="round"/>
</svg>
