<svg width="114" height="114" viewBox="0 0 114 114" fill="none" xmlns="http://www.w3.org/2000/svg">
<circle cx="57" cy="57" r="57" fill="#0B63C5"/>
<g clip-path="url(#clip0_4465_8179)">
<path d="M80.0228 29.7137H78.6385C78.6385 29.7104 78.6385 29.707 78.6385 29.7037C78.6385 28.4886 77.6492 27.5 76.433 27.5C75.2155 27.5 74.2311 28.4899 74.2311 29.7037C74.2311 29.707 74.2311 29.7104 74.2312 29.7137H68.9228C68.9228 29.7104 68.9228 29.707 68.9228 29.7037C68.9228 28.4886 67.9336 27.5 66.7174 27.5C65.5026 27.5 64.5137 28.4889 64.5137 29.7037C64.5137 29.707 64.5137 29.7104 64.5137 29.7137H59.2036C59.2036 29.7104 59.2036 29.707 59.2036 29.7037C59.2036 28.4899 58.2193 27.5 57.0017 27.5C55.7842 27.5 54.7998 28.4899 54.7998 29.7037C54.7998 29.707 54.7998 29.7104 54.7998 29.7137H49.4879C49.488 29.7104 49.488 29.707 49.488 29.7037C49.488 28.4896 48.5015 27.5 47.286 27.5C46.0692 27.5 45.0824 28.4893 45.0824 29.7037C45.0824 29.707 45.0824 29.7104 45.0824 29.7137H39.7723C39.7723 29.7104 39.7723 29.707 39.7723 29.7037C39.7723 28.4899 38.7879 27.5 37.5704 27.5C36.3535 27.5 35.3667 28.4893 35.3667 29.7037C35.3667 29.707 35.3667 29.7104 35.3667 29.7137H33.977C31.0123 29.7137 28.6068 32.1232 28.6068 35.084V81.1298C28.6068 84.0943 31.0125 86.5 33.977 86.5H74.5239H74.731L74.8775 86.3536L85.2466 75.9844L85.3931 75.8379V75.6308V35.084C85.3931 32.1232 82.9876 29.7137 80.0228 29.7137ZM81.7366 37.355V74.3222L81.4787 74.5801H77.5151C75.287 74.5801 73.4731 76.3981 73.4731 78.622V82.5856L73.2152 82.8435H33.977C33.033 82.8435 32.2633 82.0738 32.2633 81.1298V37.355H81.7366Z" fill="white" stroke="white"/>
<path d="M59.497 51.393C59.7431 51.5347 60.0566 51.4479 60.1983 51.2071L60.4551 50.7608C60.6003 50.5129 60.5135 50.1994 60.2691 50.0577L51.3557 44.9148C51.1096 44.7731 50.7961 44.8581 50.6544 45.1025L50.3976 45.547C50.2559 45.7932 50.3392 46.1066 50.5853 46.2501L59.497 51.393Z" fill="white"/>
<path d="M51.7809 64.7605C52.027 64.9022 52.3405 64.8172 52.4839 64.5728L52.7407 64.13C52.8842 63.8839 52.7992 63.5704 52.553 63.4287L43.6414 58.284C43.3952 58.1423 43.0817 58.2255 42.9383 58.4682L42.6815 58.9145C42.538 59.1624 42.623 59.4759 42.8692 59.6158L51.7809 64.7605Z" fill="white"/>
<path d="M52.4928 62.4972C52.7372 62.6424 53.0542 62.5556 53.1941 62.313L55.592 58.16L72.5174 68.9808C72.7564 69.1331 73.0646 69.0569 73.2063 68.8108L74.4938 66.5828C74.6355 66.3367 74.5452 66.0303 74.2972 65.901L56.4598 56.6564L58.8559 52.5035C58.9976 52.2591 58.9144 51.9421 58.6682 51.8021L50.6456 47.1728C50.4012 47.0311 50.086 47.1143 49.9443 47.3605L44.2842 57.1647C44.1443 57.4073 44.2275 57.7243 44.4737 57.866L52.4928 62.4972Z" fill="white"/>
<path d="M74.1555 70.2541L75.0446 70.7659C75.2925 70.9111 75.606 70.8208 75.7476 70.5817L77.2919 67.9075C77.4336 67.6596 77.3486 67.3461 77.106 67.2044L76.2134 66.6891C75.969 66.5474 75.6538 66.6342 75.5121 66.875L73.9678 69.5492C73.8261 69.799 73.9111 70.1089 74.1555 70.2541Z" fill="white"/>
<path d="M37.4872 75.4679H57.85C58.3193 75.4679 58.6983 75.0854 58.6983 74.6196V71.2264C58.6983 70.7588 58.3176 70.3781 57.85 70.3781H56.7768C56.9132 70.224 57.0017 70.0292 57.0017 69.8114V68.9631C57.0017 68.4973 56.621 68.1147 56.1534 68.1147H39.1838C38.7162 68.1147 38.3337 68.5008 38.3337 68.9631V69.8114C38.3337 70.0292 38.4258 70.224 38.5604 70.3781H37.4854C37.0161 70.3781 36.6371 70.7588 36.6371 71.2264V74.6196C36.6389 75.0854 37.0196 75.4679 37.4872 75.4679ZM37.8803 72.5139C37.8821 72.0233 38.2823 71.6195 38.7729 71.6195H56.644C57.1381 71.6195 57.5401 72.0233 57.5383 72.5139L57.5401 73.4065C57.5383 73.8988 57.1381 74.2991 56.644 74.2991H38.7729C38.2823 74.2991 37.8803 73.8988 37.8803 73.4065V72.5139V72.5139Z" fill="white"/>
</g>
<defs>
<clipPath id="clip0_4465_8179">
<rect width="58" height="58" fill="white" transform="translate(28 28)"/>
</clipPath>
</defs>
</svg>
