<svg width="58" height="58" viewBox="0 0 58 58" fill="none" xmlns="http://www.w3.org/2000/svg">
<g clip-path="url(#clip0_3069_2264)">
<path d="M52.0228 1.71374H50.6385C50.6385 1.7104 50.6385 1.70705 50.6385 1.70369C50.6385 0.488588 49.6492 -0.5 48.433 -0.5C47.2155 -0.5 46.2311 0.489942 46.2311 1.70369C46.2311 1.70705 46.2311 1.7104 46.2312 1.71374H40.9228C40.9228 1.7104 40.9228 1.70705 40.9228 1.70369C40.9228 0.488588 39.9336 -0.5 38.7174 -0.5C37.5026 -0.5 36.5137 0.488927 36.5137 1.70369C36.5137 1.70705 36.5137 1.7104 36.5137 1.71374H31.2036C31.2036 1.7104 31.2036 1.70705 31.2036 1.70369C31.2036 0.489942 30.2193 -0.5 29.0017 -0.5C27.7842 -0.5 26.7998 0.489943 26.7998 1.70369C26.7998 1.70705 26.7998 1.7104 26.7998 1.71374H21.4879C21.488 1.7104 21.488 1.70705 21.488 1.70369C21.488 0.489603 20.5015 -0.5 19.286 -0.5C18.0692 -0.5 17.0824 0.489265 17.0824 1.70369C17.0824 1.70705 17.0824 1.7104 17.0824 1.71374H11.7723C11.7723 1.7104 11.7723 1.70705 11.7723 1.70369C11.7723 0.489943 10.7879 -0.5 9.57038 -0.5C8.35351 -0.5 7.36669 0.489265 7.36669 1.70369C7.36669 1.70705 7.3667 1.7104 7.36672 1.71374H5.97704C3.0123 1.71374 0.606812 4.12324 0.606812 7.08397V53.1298C0.606812 56.0943 3.01253 58.5 5.97704 58.5H46.5239H46.731L46.8775 58.3536L57.2466 47.9844L57.3931 47.8379V47.6308V7.08397C57.3931 4.12324 54.9876 1.71374 52.0228 1.71374ZM53.7366 9.35496V46.3222L53.4787 46.5801H49.5151C47.287 46.5801 45.4731 48.3981 45.4731 50.622V54.5856L45.2152 54.8435H5.97704C5.03297 54.8435 4.2633 54.0738 4.2633 53.1298V9.35496H53.7366Z" fill="white" stroke="white"/>
<path d="M31.497 23.393C31.7431 23.5347 32.0566 23.4479 32.1983 23.2071L32.4551 22.7608C32.6003 22.5129 32.5135 22.1994 32.2691 22.0577L23.3557 16.9148C23.1096 16.7731 22.7961 16.8581 22.6544 17.1025L22.3976 17.547C22.2559 17.7932 22.3392 18.1066 22.5853 18.2501L31.497 23.393Z" fill="white"/>
<path d="M23.7809 36.7605C24.027 36.9022 24.3405 36.8172 24.4839 36.5728L24.7407 36.13C24.8842 35.8839 24.7992 35.5704 24.553 35.4287L15.6414 30.284C15.3952 30.1423 15.0817 30.2255 14.9383 30.4682L14.6815 30.9145C14.538 31.1624 14.623 31.4759 14.8692 31.6158L23.7809 36.7605Z" fill="white"/>
<path d="M24.4928 34.4972C24.7372 34.6424 25.0542 34.5556 25.1941 34.313L27.592 30.16L44.5174 40.9808C44.7564 41.1331 45.0646 41.0569 45.2063 40.8108L46.4938 38.5828C46.6355 38.3367 46.5452 38.0303 46.2972 37.901L28.4598 28.6564L30.8559 24.5035C30.9976 24.2591 30.9144 23.9421 30.6682 23.8021L22.6456 19.1728C22.4012 19.0311 22.086 19.1143 21.9443 19.3605L16.2842 29.1647C16.1443 29.4073 16.2275 29.7243 16.4737 29.866L24.4928 34.4972Z" fill="white"/>
<path d="M46.1555 42.2541L47.0446 42.7659C47.2925 42.9111 47.606 42.8208 47.7476 42.5817L49.2919 39.9075C49.4336 39.6596 49.3486 39.3461 49.106 39.2044L48.2134 38.6891C47.969 38.5474 47.6538 38.6342 47.5121 38.875L45.9678 41.5492C45.8261 41.799 45.9111 42.1089 46.1555 42.2541Z" fill="white"/>
<path d="M9.48716 47.4679H29.85C30.3193 47.4679 30.6983 47.0854 30.6983 46.6196V43.2264C30.6983 42.7588 30.3176 42.3781 29.85 42.3781H28.7768C28.9132 42.224 29.0017 42.0292 29.0017 41.8114V40.9631C29.0017 40.4973 28.621 40.1147 28.1534 40.1147H11.1838C10.7162 40.1147 10.3337 40.5008 10.3337 40.9631V41.8114C10.3337 42.0292 10.4258 42.224 10.5604 42.3781H9.48539C9.01608 42.3781 8.63708 42.7588 8.63708 43.2264V46.6196C8.63886 47.0854 9.01962 47.4679 9.48716 47.4679ZM9.88032 44.5139C9.88209 44.0233 10.2823 43.6195 10.7729 43.6195H28.644C29.1381 43.6195 29.5401 44.0233 29.5383 44.5139L29.5401 45.4065C29.5383 45.8988 29.1381 46.2991 28.644 46.2991H10.7729C10.2823 46.2991 9.88032 45.8988 9.88032 45.4065V44.5139Z" fill="white"/>
</g>
<defs>
<clipPath id="clip0_3069_2264">
<rect width="58" height="58" fill="white"/>
</clipPath>
</defs>
</svg>
