<svg width="114" height="114" viewBox="0 0 114 114" fill="none" xmlns="http://www.w3.org/2000/svg">
<circle cx="57" cy="57" r="57" fill="#0B63C5"/>
<path d="M65.8109 70.5361C66.8472 74.4037 64.552 78.3791 60.6844 79.4155C56.8168 80.4518 52.8413 78.1566 51.805 74.289M32.9706 55.0659C32.0294 51.6869 33.0082 48.0338 35.5129 45.5782M57.3535 40.8741C58.0887 39.5514 58.3309 37.9528 57.9083 36.3757C57.0447 33.1527 53.7318 31.24 50.5088 32.1036C47.2858 32.9672 45.3731 36.2801 46.2367 39.5031C46.6593 41.0802 47.6683 42.3436 48.9663 43.1214M77.1043 43.2404C76.23 39.8435 73.5557 37.1692 70.1588 36.2949M70.269 49.8265C69.4064 46.6071 67.1035 43.9151 63.8669 42.3425C60.6303 40.7699 56.7252 40.4455 53.0106 41.4409C49.296 42.4362 46.0762 44.6696 44.0595 47.6498C42.0429 50.63 41.3945 54.1129 42.2571 57.3322C43.6844 62.6587 43.4072 66.9081 42.5059 70.1371C41.4787 73.8173 40.9651 75.6574 41.1038 76.0269C41.2626 76.4497 41.3774 76.5657 41.7985 76.7289C42.1665 76.8715 43.7126 76.4572 46.8048 75.6286L75.4788 67.9455C78.571 67.1169 80.1171 66.7026 80.3645 66.3951C80.6476 66.0433 80.689 65.8854 80.6152 65.4399C80.5506 65.0505 79.1857 63.7138 76.456 61.0402C74.0609 58.6944 71.6962 55.1529 70.269 49.8265Z" stroke="white" stroke-width="5" stroke-linecap="round" stroke-linejoin="round"/>
</svg>
