<svg width="58" height="58" viewBox="0 0 58 58" fill="none" xmlns="http://www.w3.org/2000/svg">
<path d="M37.8109 43.5361C38.8472 47.4037 36.552 51.3791 32.6844 52.4155C28.8168 53.4518 24.8413 51.1566 23.805 47.289M4.97064 28.0659C4.02936 24.6869 5.00821 21.0338 7.51285 18.5782M29.3535 13.8741C30.0887 12.5514 30.3309 10.9528 29.9083 9.37571C29.0447 6.15268 25.7318 4.24 22.5088 5.1036C19.2858 5.96721 17.3731 9.28008 18.2367 12.5031C18.6593 14.0802 19.6683 15.3436 20.9663 16.1214M49.1043 16.2404C48.23 12.8435 45.5557 10.1692 42.1588 9.2949M42.269 22.8265C41.4064 19.6071 39.1035 16.9151 35.8669 15.3425C32.6303 13.7699 28.7252 13.4455 25.0106 14.4409C21.296 15.4362 18.0762 17.6696 16.0595 20.6498C14.0429 23.63 13.3945 27.1129 14.2571 30.3322C15.6844 35.6587 15.4072 39.9081 14.5059 43.1371C13.4787 46.8173 12.9651 48.6574 13.1038 49.0269C13.2626 49.4497 13.3774 49.5657 13.7985 49.7289C14.1665 49.8715 15.7126 49.4572 18.8048 48.6286L47.4788 40.9455C50.571 40.1169 52.1171 39.7026 52.3645 39.3951C52.6476 39.0433 52.689 38.8854 52.6152 38.4399C52.5506 38.0505 51.1857 36.7138 48.456 34.0402C46.0609 31.6944 43.6962 28.1529 42.269 22.8265Z" stroke="white" stroke-width="5" stroke-linecap="round" stroke-linejoin="round"/>
</svg>
