<svg width="21" height="27" viewBox="0 0 21 27" fill="none" xmlns="http://www.w3.org/2000/svg">
<path d="M0.291626 3.27653C0.291626 1.86025 0.291626 1.15211 0.586924 0.76176C0.84418 0.421693 1.23739 0.211255 1.66304 0.18584C2.15164 0.156667 2.74084 0.549472 3.91926 1.33508L19.2545 11.5585C20.2282 12.2077 20.715 12.5323 20.8847 12.9414C21.033 13.299 21.033 13.701 20.8847 14.0586C20.715 14.4677 20.2282 14.7923 19.2544 15.4414L3.91926 25.6649C2.74084 26.4505 2.15164 26.8433 1.66304 26.8141C1.23739 26.7887 0.84418 26.5783 0.586924 26.2382C0.291626 25.8479 0.291626 25.1397 0.291626 23.7235V3.27653Z" fill="#0B63C5"/>
</svg>
