<svg width="114" height="114" viewBox="0 0 114 114" fill="none" xmlns="http://www.w3.org/2000/svg">
<circle cx="57" cy="57" r="57" fill="#0B63C5"/>
<g clip-path="url(#clip0_4465_8176)">
<path d="M82.8698 41.5161L87.8558 40.8899C88.541 40.8072 89.0255 40.1455 88.8837 39.4721C88.7655 38.8458 88.1866 38.4323 87.5486 38.515L82.5626 39.1412C81.8773 39.2239 81.4047 39.8856 81.5347 40.559C81.6528 41.1734 82.2436 41.5988 82.8698 41.5161Z" fill="white"/>
<path d="M77.9074 33.9544C78.4155 34.4388 79.2189 34.3797 79.6561 33.8481L82.858 29.9727C83.2597 29.4883 83.2124 28.7675 82.7634 28.3304C82.2554 27.846 81.452 27.905 81.0148 28.4367L77.8129 32.3121C77.4112 32.8083 77.4584 33.5172 77.9074 33.9544Z" fill="white"/>
<path d="M80.2468 36.9555L80.2586 36.9791C80.5776 37.558 81.3102 37.7707 81.8891 37.4517L86.2016 35.0768C86.7806 34.7578 86.9933 34.0253 86.6742 33.4464L86.6624 33.4227C86.3434 32.8438 85.6109 32.6311 85.0319 32.9501L80.7194 35.325C80.1287 35.644 79.9278 36.3647 80.2468 36.9555Z" fill="white"/>
<path d="M79.3961 50.3774C79.7742 50.9681 80.5777 51.1572 81.1802 50.7318C81.7001 50.3537 81.8182 49.6212 81.5111 49.0659L77.9901 42.6621C79.1008 41.3742 79.3607 39.472 78.4864 37.8888C77.6121 36.3056 75.8752 35.5139 74.1975 35.7502L70.712 29.4055C70.4048 28.8384 69.7196 28.543 69.1288 28.7911C68.4435 29.0629 68.1718 29.8427 68.4671 30.4807C66.8012 35.703 62.5123 39.7201 59.7594 41.8705L59.1923 40.8308L52.2804 44.6234C50.9099 45.3796 50.4018 47.1046 51.158 48.4751L51.7724 49.5858L51.0162 49.9993C50.5554 50.2474 50.39 50.8264 50.6381 51.2871L52.3513 54.4063C52.5994 54.8671 53.1784 55.0325 53.6392 54.7844L54.3953 54.3709L54.9152 55.3279C55.6714 56.6985 57.3964 57.2065 58.7669 56.4504L59.4049 56.1077L61.8034 58.7307C59.2986 59.6877 58.0817 63.3977 58.0817 63.3977C57.8926 64.0947 57.9044 64.7564 57.9635 65.2526C57.9753 65.3826 57.9989 65.4889 58.0108 65.5953C58.0226 65.7489 57.9753 66.0088 57.8926 66.3042C57.6917 67.0249 57.1837 67.6157 56.5339 67.9819L45.274 74.0785C45.274 74.0785 45.2622 74.0785 45.2622 74.0903V66.6232V41.3861C45.2977 41.3861 45.3331 41.3742 45.3804 41.3742H52.8948L57.9635 38.5977C58.3534 38.385 58.7787 38.2787 59.2041 38.2787C59.4522 38.2787 59.7003 38.3141 59.9366 38.385C61.2717 37.1681 62.7841 35.5848 64.0365 33.7299H46.5265C43.5372 33.7299 41.0915 36.2583 41.0915 39.3539V41.008V67.5684V79.3835V80.376C41.0915 83.4597 43.5372 86 46.5265 86H65.0998C68.0891 86 70.5348 83.4716 70.5348 80.376V79.5962V79.3717V75.0119C69.117 75.7445 67.7701 76.3707 66.754 76.8078L66.3641 77.0205V77.1505V78.3556C66.3286 78.3556 66.2932 78.3674 66.2459 78.3674H58.5543L65.6079 74.4921C66.8603 73.9486 68.9398 73.0034 70.9129 71.8691C72.2244 71.2783 73.5713 70.5458 74.5165 69.7424C77.7066 66.9895 75.4144 64.9691 75.4144 64.9691C76.5605 62.4288 74.4456 61.2119 74.4456 61.2119C75.1781 58.4471 72.6497 57.8682 72.6497 57.8682C72.6497 57.8682 72.7797 55.895 70.972 55.4579C69.4478 55.0916 67.3093 56.4031 66.0923 57.301L63.1031 54.0755L65.667 52.6695L65.0998 51.6298C68.3963 50.4601 74.0912 48.995 79.3961 50.3774ZM57.4673 53.7447L53.8636 47.1873L57.9989 44.9188L61.6026 51.4762L57.4673 53.7447ZM58.6606 82.1601C58.6606 82.7863 58.1644 83.2943 57.5618 83.2943H53.4856C52.883 83.2943 52.3868 82.7863 52.3868 82.1601C52.3868 81.5339 52.883 81.0258 53.4856 81.0258H57.5618C58.1762 81.0258 58.6606 81.5339 58.6606 82.1601Z" fill="white"/>
</g>
<defs>
<clipPath id="clip0_4465_8176">
<rect width="58" height="58" fill="white" transform="translate(36 28)"/>
</clipPath>
</defs>
</svg>
