<svg width="58" height="58" viewBox="0 0 58 58" fill="none" xmlns="http://www.w3.org/2000/svg">
<g clip-path="url(#clip0_3069_2192)">
<path d="M46.8698 13.5161L51.8558 12.8899C52.541 12.8072 53.0255 12.1455 52.8837 11.4721C52.7655 10.8458 52.1866 10.4323 51.5486 10.515L46.5626 11.1412C45.8773 11.2239 45.4047 11.8856 45.5347 12.559C45.6528 13.1734 46.2436 13.5988 46.8698 13.5161Z" fill="white"/>
<path d="M41.9074 5.95439C42.4155 6.43881 43.2189 6.37974 43.6561 5.84805L46.858 1.97269C47.2597 1.48827 47.2124 0.767549 46.7634 0.33039C46.2554 -0.154031 45.452 -0.0949551 45.0148 0.436726L41.8129 4.31209C41.4112 4.80832 41.4584 5.51723 41.9074 5.95439Z" fill="white"/>
<path d="M44.2468 8.95545L44.2586 8.97908C44.5776 9.55802 45.3102 9.7707 45.8891 9.45169L50.2016 7.07685C50.7806 6.75784 50.9933 6.0253 50.6742 5.44636L50.6624 5.42273C50.3434 4.84379 49.6109 4.63111 49.0319 4.95012L44.7194 7.32496C44.1287 7.64397 43.9278 8.3647 44.2468 8.95545Z" fill="white"/>
<path d="M43.3961 22.3774C43.7742 22.9681 44.5777 23.1572 45.1802 22.7318C45.7001 22.3537 45.8182 21.6212 45.5111 21.0659L41.9901 14.6621C43.1008 13.3742 43.3607 11.472 42.4864 9.88878C41.6121 8.30556 39.8752 7.51394 38.1975 7.75025L34.712 1.40552C34.4048 0.838396 33.7196 0.543017 33.1288 0.791135C32.4435 1.06288 32.1718 1.84268 32.4671 2.4807C30.8012 7.70299 26.5123 11.7201 23.7594 13.8705L23.1923 12.8308L16.2804 16.6234C14.9099 17.3796 14.4018 19.1046 15.158 20.4751L15.7724 21.5858L15.0162 21.9993C14.5554 22.2474 14.39 22.8264 14.6381 23.2871L16.3513 26.4063C16.5994 26.8671 17.1784 27.0325 17.6392 26.7844L18.3953 26.3709L18.9152 27.3279C19.6714 28.6985 21.3964 29.2065 22.7669 28.4504L23.4049 28.1077L25.8034 30.7307C23.2986 31.6877 22.0816 35.3977 22.0816 35.3977C21.8926 36.0947 21.9044 36.7564 21.9635 37.2526C21.9753 37.3826 21.9989 37.4889 22.0108 37.5953C22.0226 37.7489 21.9753 38.0088 21.8926 38.3042C21.6917 39.0249 21.1837 39.6157 20.5339 39.9819L9.27405 46.0785C9.27405 46.0785 9.26223 46.0785 9.26223 46.0903V38.6232V13.3861C9.29768 13.3861 9.33312 13.3742 9.38038 13.3742H16.8948L21.9635 10.5977C22.3534 10.385 22.7787 10.2787 23.2041 10.2787C23.4522 10.2787 23.7003 10.3141 23.9366 10.385C25.2717 9.16806 26.7841 7.58484 28.0365 5.72986H10.5265C7.53722 5.72986 5.09149 8.2583 5.09149 11.3539V13.008V39.5684V51.3835V52.376C5.09149 55.4597 7.53722 58 10.5265 58H29.0998C32.0891 58 34.5348 55.4716 34.5348 52.376V51.5962V51.3717V47.0119C33.117 47.7445 31.7701 48.3707 30.754 48.8078L30.3641 49.0205V49.1505V50.3556C30.3286 50.3556 30.2932 50.3674 30.2459 50.3674H22.5543L29.6079 46.4921C30.8603 45.9486 32.9398 45.0034 34.9129 43.8691C36.2244 43.2783 37.5713 42.5458 38.5165 41.7424C41.7066 38.9895 39.4144 36.9691 39.4144 36.9691C40.5605 34.4288 38.4456 33.2119 38.4456 33.2119C39.1781 30.4471 36.6497 29.8682 36.6497 29.8682C36.6497 29.8682 36.7797 27.895 34.972 27.4579C33.4478 27.0916 31.3093 28.4031 30.0923 29.301L27.1031 26.0755L29.667 24.6695L29.0998 23.6298C32.3963 22.4601 38.0912 20.995 43.3961 22.3774ZM21.4673 25.7447L17.8636 19.1873L21.9989 16.9188L25.6026 23.4762L21.4673 25.7447ZM22.6606 54.1601C22.6606 54.7863 22.1644 55.2943 21.5618 55.2943H17.4856C16.883 55.2943 16.3868 54.7863 16.3868 54.1601C16.3868 53.5339 16.883 53.0258 17.4856 53.0258H21.5618C22.1762 53.0258 22.6606 53.5339 22.6606 54.1601Z" fill="white"/>
</g>
<defs>
<clipPath id="clip0_3069_2192">
<rect width="58" height="58" fill="white"/>
</clipPath>
</defs>
</svg>
