<svg width="114" height="114" viewBox="0 0 114 114" fill="none" xmlns="http://www.w3.org/2000/svg">
<circle cx="57" cy="57" r="57" fill="#020D1B"/>
<g clip-path="url(#clip0_4465_8178)">
<path d="M63.6263 41.2759L63.4636 41.3366V41.5102V44.7903V45.1863L63.8211 45.016C65.3633 44.2814 67.042 43.8073 68.835 43.7199V44.7721V45.0221H68.9911L67.1706 48.6655L66.9898 49.0273H67.3942H68.5017V57.0043C68.5017 57.108 68.5457 57.1849 68.5655 57.2187C68.5723 57.2302 68.5759 57.236 68.5784 57.2401C68.5782 57.2464 68.5779 57.2555 68.5779 57.2645C68.5775 57.306 68.579 57.3931 68.6323 57.4818L71.2092 61.9442L70.2514 62.4979L69.9014 62.7002L70.2388 62.923L74.0911 65.4657L74.5084 65.7412L74.4783 65.2421L74.2012 60.6355L74.1769 60.2316L73.8266 60.434L72.8689 60.9874L70.4188 56.7461V49.0273H71.526H71.9304L71.7497 48.6655L69.9292 45.0221H70.074L70.0753 44.7733L70.0805 43.7197C72.0445 43.8127 73.8883 44.3525 75.5455 45.2173L75.0348 46.0989L74.9087 46.3165L75.1271 46.4413L75.7743 46.8112L75.9909 46.9349L76.1151 46.7186L76.6312 45.8205C78.2411 46.8549 79.6029 48.2162 80.6379 49.8275L79.7407 50.3478L79.5242 50.4733L79.65 50.6897L80.0215 51.3288L80.147 51.5448L80.3631 51.4194L81.2403 50.9104C82.1045 52.5699 82.6437 54.4104 82.7418 56.3741H81.6892H81.4392V56.6241V57.3671V57.6171H81.6892H82.7418C82.6438 59.585 82.1046 61.4274 81.2404 63.0869L80.3633 62.5769L80.1455 62.4502L80.0206 62.669L79.6526 63.313L79.5293 63.5287L79.7443 63.6533L80.6391 64.172C79.6012 65.7822 78.2377 67.1442 76.6291 68.1794L76.1118 67.2848L75.9872 67.0693L75.7712 67.1929L75.1305 67.5595L74.9128 67.6841L75.038 67.9014L75.5465 68.7837C73.8867 69.6484 72.0484 70.19 70.0823 70.2813V69.2311V68.9811H69.8323H69.0893H68.8393V69.2311V70.2812C67.0461 70.1962 65.3628 69.7217 63.8227 68.9842L63.4647 68.8128V69.2097V72.4922V72.6659L63.6275 72.7265C65.4447 73.4032 67.406 73.7924 69.4592 73.7924C78.717 73.7924 86.2511 66.2599 86.2511 56.9973V56.9972C86.25 47.7416 78.7158 40.21 69.4581 40.21C67.4052 40.21 65.4439 40.5984 63.6263 41.2759Z" fill="white" stroke="white" stroke-width="0.5"/>
<path d="M57.246 36.9893H31.9531C29.6339 36.9893 27.75 38.8713 27.75 41.1908V72.8095C27.75 75.129 29.6339 77.0107 31.9531 77.0107H57.246C59.5669 77.0107 61.4488 75.1289 61.4488 72.8095V41.1908C61.4488 38.8731 59.567 36.9893 57.246 36.9893ZM58.4128 72.8108C58.4128 73.4536 57.8895 73.9761 57.246 73.9761H31.9531C31.3098 73.9761 30.7863 73.4536 30.7863 72.8108V41.1924C30.7863 40.5498 31.3096 40.0272 31.9531 40.0272H57.246C57.8893 40.0272 58.4128 40.5496 58.4128 41.1924V72.8108Z" fill="white" stroke="white" stroke-width="0.5"/>
<path d="M55.1442 47.7941H34.055C33.5164 47.7941 33.0793 48.2265 33.0793 48.7689C33.0793 49.3112 33.5136 49.7462 34.055 49.7462H55.1442C55.6856 49.7462 56.1198 49.3112 56.1198 48.7689C56.1198 48.2264 55.6843 47.7941 55.1442 47.7941Z" fill="white" stroke="white" stroke-width="0.5"/>
<path d="M55.1442 51.1045H34.055C33.5161 51.1045 33.0793 51.5386 33.0793 52.0793C33.0793 52.6182 33.5135 53.0553 34.055 53.0553H55.1442C55.6852 53.0553 56.1198 52.6206 56.1198 52.0793C56.1198 51.5392 55.6847 51.1045 55.1442 51.1045Z" fill="white" stroke="white" stroke-width="0.5"/>
<path d="M55.1442 54.412H34.055C33.5153 54.412 33.0793 54.8488 33.0793 55.3887C33.0793 55.9294 33.5139 56.3643 34.055 56.3643H55.1442C55.6852 56.3643 56.1198 55.9297 56.1198 55.3887C56.1198 54.8491 55.6855 54.412 55.1442 54.412Z" fill="white" stroke="white" stroke-width="0.5"/>
<path d="M47.7838 58.6991C47.7857 58.1592 47.3491 57.7219 46.8106 57.7219H34.055C33.5152 57.7219 33.0793 58.1594 33.0793 58.6986C33.0793 59.2389 33.5135 59.6751 34.055 59.6751H46.8089C47.3485 59.6751 47.7835 59.2431 47.7838 58.6991ZM47.7838 58.6991C47.7838 58.6993 47.7838 58.6994 47.7838 58.6996L47.5338 58.6986H47.7838C47.7838 58.6988 47.7838 58.6989 47.7838 58.6991Z" fill="white" stroke="white" stroke-width="0.5"/>
<path d="M44.3098 64.2589H34.055C33.5163 64.2589 33.0793 64.692 33.0793 65.2338C33.0793 65.7741 33.5135 66.2102 34.055 66.2102H44.3098C44.85 66.2102 45.2847 65.776 45.2847 65.2338C45.2847 64.6925 44.8495 64.2589 44.3098 64.2589Z" fill="white" stroke="white" stroke-width="0.5"/>
</g>
<defs>
<clipPath id="clip0_4465_8178">
<rect width="58" height="58" fill="white" transform="translate(28 28)"/>
</clipPath>
</defs>
</svg>
