<svg width="58" height="58" viewBox="0 0 58 58" fill="none" xmlns="http://www.w3.org/2000/svg">
<g clip-path="url(#clip0_3069_2214)">
<path d="M35.6263 13.2759L35.4636 13.3366V13.5102V16.7903V17.1863L35.8211 17.016C37.3633 16.2814 39.042 15.8073 40.835 15.7199V16.7721V17.0221H40.9911L39.1706 20.6655L38.9898 21.0273H39.3942H40.5017V29.0043C40.5017 29.108 40.5457 29.1849 40.5655 29.2187C40.5723 29.2302 40.5759 29.236 40.5784 29.2401C40.5782 29.2464 40.5779 29.2555 40.5779 29.2645C40.5775 29.306 40.579 29.3931 40.6323 29.4818L43.2092 33.9442L42.2514 34.4979L41.9014 34.7002L42.2388 34.923L46.0911 37.4657L46.5084 37.7412L46.4783 37.2421L46.2012 32.6355L46.1769 32.2316L45.8266 32.434L44.8689 32.9874L42.4188 28.7461V21.0273H43.526H43.9304L43.7497 20.6655L41.9292 17.0221H42.074L42.0753 16.7733L42.0805 15.7197C44.0445 15.8127 45.8883 16.3525 47.5455 17.2173L47.0348 18.0989L46.9087 18.3165L47.1271 18.4413L47.7743 18.8112L47.9909 18.9349L48.1151 18.7186L48.6312 17.8205C50.2411 18.8549 51.6029 20.2162 52.6379 21.8275L51.7407 22.3478L51.5242 22.4733L51.65 22.6897L52.0215 23.3288L52.147 23.5448L52.3631 23.4194L53.2403 22.9104C54.1045 24.5699 54.6437 26.4104 54.7418 28.3741H53.6892H53.4392V28.6241V29.3671V29.6171H53.6892H54.7418C54.6438 31.585 54.1046 33.4274 53.2404 35.0869L52.3633 34.5769L52.1455 34.4502L52.0206 34.669L51.6526 35.313L51.5293 35.5287L51.7443 35.6533L52.6391 36.172C51.6012 37.7822 50.2377 39.1442 48.6291 40.1794L48.1118 39.2848L47.9872 39.0693L47.7712 39.1929L47.1305 39.5595L46.9128 39.6841L47.038 39.9014L47.5465 40.7837C45.8867 41.6484 44.0484 42.19 42.0823 42.2813V41.2311V40.9811H41.8323H41.0893H40.8393V41.2311V42.2812C39.0461 42.1962 37.3628 41.7217 35.8227 40.9842L35.4647 40.8128V41.2097V44.4922V44.6659L35.6275 44.7265C37.4447 45.4032 39.406 45.7924 41.4592 45.7924C50.717 45.7924 58.2511 38.2599 58.2511 28.9973V28.9972C58.25 19.7416 50.7158 12.21 41.4581 12.21C39.4052 12.21 37.4439 12.5984 35.6263 13.2759Z" fill="white" stroke="white" stroke-width="0.5"/>
<path d="M29.246 8.98929H3.95312C1.63389 8.98929 -0.25 10.8713 -0.25 13.1908V44.8095C-0.25 47.129 1.63391 49.0107 3.95312 49.0107H29.246C31.5669 49.0107 33.4488 47.1289 33.4488 44.8095V13.1908C33.4488 10.8731 31.567 8.98929 29.246 8.98929ZM30.4128 44.8108C30.4128 45.4536 29.8895 45.9761 29.246 45.9761H3.95312C3.30981 45.9761 2.78625 45.4536 2.78625 44.8108V13.1924C2.78625 12.5498 3.3096 12.0272 3.95312 12.0272H29.246C29.8893 12.0272 30.4128 12.5496 30.4128 13.1924V44.8108Z" fill="white" stroke="white" stroke-width="0.5"/>
<path d="M27.1442 19.7941H6.055C5.51645 19.7941 5.07935 20.2265 5.07935 20.7689C5.07935 21.3112 5.5136 21.7462 6.055 21.7462H27.1442C27.6856 21.7462 28.1198 21.3112 28.1198 20.7689C28.1198 20.2265 27.6843 19.7941 27.1442 19.7941Z" fill="white" stroke="white" stroke-width="0.5"/>
<path d="M27.1442 23.1045H6.055C5.51614 23.1045 5.07935 23.5386 5.07935 24.0793C5.07935 24.6182 5.51348 25.0553 6.055 25.0553H27.1442C27.6852 25.0553 28.1198 24.6206 28.1198 24.0793C28.1198 23.5392 27.6847 23.1045 27.1442 23.1045Z" fill="white" stroke="white" stroke-width="0.5"/>
<path d="M27.1442 26.412H6.055C5.51529 26.412 5.07935 26.8488 5.07935 27.3887C5.07935 27.9294 5.51391 28.3643 6.055 28.3643H27.1442C27.6852 28.3643 28.1198 27.9297 28.1198 27.3887C28.1198 26.8491 27.6855 26.412 27.1442 26.412Z" fill="white" stroke="white" stroke-width="0.5"/>
<path d="M19.7838 30.6991C19.7857 30.1592 19.3491 29.7219 18.8106 29.7219H6.055C5.51517 29.7219 5.07935 30.1594 5.07935 30.6986C5.07935 31.2389 5.51354 31.6751 6.055 31.6751H18.8089C19.3485 31.6751 19.7835 31.2431 19.7838 30.6991ZM19.7838 30.6991C19.7838 30.6993 19.7838 30.6994 19.7838 30.6996L19.5338 30.6986H19.7838C19.7838 30.6988 19.7838 30.6989 19.7838 30.6991Z" fill="white" stroke="white" stroke-width="0.5"/>
<path d="M16.3098 36.2589H6.055C5.51633 36.2589 5.07935 36.692 5.07935 37.2338C5.07935 37.7741 5.51354 38.2102 6.055 38.2102H16.3098C16.85 38.2102 17.2847 37.776 17.2847 37.2338C17.2847 36.6925 16.8495 36.2589 16.3098 36.2589Z" fill="white" stroke="white" stroke-width="0.5"/>
</g>
<defs>
<clipPath id="clip0_3069_2214">
<rect width="58" height="58" fill="white"/>
</clipPath>
</defs>
</svg>
