<svg width="18" height="23" viewBox="0 0 18 23" fill="none" xmlns="http://www.w3.org/2000/svg">
<path d="M11 1.76953V5.90007C11 6.46012 11 6.74015 11.109 6.95406C11.2049 7.14222 11.3578 7.2952 11.546 7.39108C11.7599 7.50007 12.0399 7.50007 12.6 7.50007H16.7305M13 12.5H5M13 16.5H5M7 8.5H5M11 1.5H5.8C4.11984 1.5 3.27976 1.5 2.63803 1.82698C2.07354 2.1146 1.6146 2.57354 1.32698 3.13803C1 3.77976 1 4.61984 1 6.3V16.7C1 18.3802 1 19.2202 1.32698 19.862C1.6146 20.4265 2.07354 20.8854 2.63803 21.173C3.27976 21.5 4.11984 21.5 5.8 21.5H12.2C13.8802 21.5 14.7202 21.5 15.362 21.173C15.9265 20.8854 16.3854 20.4265 16.673 19.862C17 19.2202 17 18.3802 17 16.7V7.5L11 1.5Z" stroke="#7A797D" stroke-width="2" stroke-linecap="round" stroke-linejoin="round"/>
</svg>
