<svg width="28" height="28" viewBox="0 0 28 28" fill="none" xmlns="http://www.w3.org/2000/svg">
<path d="M18.3052 18.3567V21.4076C18.3052 22.6281 18.3052 23.2383 18.0677 23.7045C17.8588 24.1145 17.5254 24.4479 17.1153 24.6568C16.6492 24.8943 16.0389 24.8943 14.8185 24.8943H6.53751C5.31704 24.8943 4.7068 24.8943 4.24065 24.6568C3.8306 24.4479 3.49723 24.1145 3.2883 23.7045C3.05078 23.2383 3.05078 22.6281 3.05078 21.4076V13.1266C3.05078 11.9062 3.05078 11.2959 3.2883 10.8298C3.49723 10.4197 3.8306 10.0864 4.24065 9.87743C4.7068 9.63991 5.31704 9.63991 6.53751 9.63991H9.58839M13.0751 18.3567H21.3561C22.5766 18.3567 23.1868 18.3567 23.653 18.1192C24.063 17.9103 24.3964 17.5769 24.6053 17.1669C24.8428 16.7007 24.8428 16.0905 24.8428 14.87V6.58902C24.8428 5.36855 24.8428 4.75832 24.6053 4.29216C24.3964 3.88212 24.063 3.54874 23.653 3.33981C23.1868 3.10229 22.5766 3.10229 21.3561 3.10229H13.0751C11.8546 3.10229 11.2444 3.10229 10.7783 3.33981C10.3682 3.54874 10.0348 3.88212 9.82591 4.29216C9.58839 4.75832 9.58839 5.36855 9.58839 6.58902V14.87C9.58839 16.0905 9.58839 16.7007 9.82591 17.1669C10.0348 17.5769 10.3682 17.9103 10.7783 18.1192C11.2444 18.3567 11.8546 18.3567 13.0751 18.3567Z" stroke="#0B63C5" stroke-width="2.1792" stroke-linecap="round" stroke-linejoin="round"/>
</svg>
