<svg width="22" height="21" viewBox="0 0 22 21" fill="none" xmlns="http://www.w3.org/2000/svg">
<path d="M0.5 2.25C0.5 1.65326 0.737053 1.08097 1.15901 0.65901C1.58097 0.237053 2.15326 0 2.75 0H7.25C7.84674 0 8.41903 0.237053 8.84099 0.65901C9.26295 1.08097 9.5 1.65326 9.5 2.25V6.75C9.5 7.34674 9.26295 7.91903 8.84099 8.34099C8.41903 8.76295 7.84674 9 7.25 9H2.75C2.15326 9 1.58097 8.76295 1.15901 8.34099C0.737053 7.91903 0.5 7.34674 0.5 6.75V2.25ZM2.75 1.5C2.55109 1.5 2.36032 1.57902 2.21967 1.71967C2.07902 1.86032 2 2.05109 2 2.25V6.75C2 6.94891 2.07902 7.13968 2.21967 7.28033C2.36032 7.42098 2.55109 7.5 2.75 7.5H7.25C7.44891 7.5 7.63968 7.42098 7.78033 7.28033C7.92098 7.13968 8 6.94891 8 6.75V2.25C8 2.05109 7.92098 1.86032 7.78033 1.71967C7.63968 1.57902 7.44891 1.5 7.25 1.5H2.75ZM12.5 2.25C12.5 1.65326 12.7371 1.08097 13.159 0.65901C13.581 0.237053 14.1533 0 14.75 0H19.25C19.8467 0 20.419 0.237053 20.841 0.65901C21.2629 1.08097 21.5 1.65326 21.5 2.25V6.75C21.5 7.34674 21.2629 7.91903 20.841 8.34099C20.419 8.76295 19.8467 9 19.25 9H14.75C14.1533 9 13.581 8.76295 13.159 8.34099C12.7371 7.91903 12.5 7.34674 12.5 6.75V2.25ZM14.75 1.5C14.5511 1.5 14.3603 1.57902 14.2197 1.71967C14.079 1.86032 14 2.05109 14 2.25V6.75C14 6.94891 14.079 7.13968 14.2197 7.28033C14.3603 7.42098 14.5511 7.5 14.75 7.5H19.25C19.4489 7.5 19.6397 7.42098 19.7803 7.28033C19.921 7.13968 20 6.94891 20 6.75V2.25C20 2.05109 19.921 1.86032 19.7803 1.71967C19.6397 1.57902 19.4489 1.5 19.25 1.5H14.75ZM0.5 14.25C0.5 13.6533 0.737053 13.081 1.15901 12.659C1.58097 12.2371 2.15326 12 2.75 12H7.25C7.84674 12 8.41903 12.2371 8.84099 12.659C9.26295 13.081 9.5 13.6533 9.5 14.25V18.75C9.5 19.3467 9.26295 19.919 8.84099 20.341C8.41903 20.7629 7.84674 21 7.25 21H2.75C2.15326 21 1.58097 20.7629 1.15901 20.341C0.737053 19.919 0.5 19.3467 0.5 18.75V14.25ZM2.75 13.5C2.55109 13.5 2.36032 13.579 2.21967 13.7197C2.07902 13.8603 2 14.0511 2 14.25V18.75C2 18.9489 2.07902 19.1397 2.21967 19.2803C2.36032 19.421 2.55109 19.5 2.75 19.5H7.25C7.44891 19.5 7.63968 19.421 7.78033 19.2803C7.92098 19.1397 8 18.9489 8 18.75V14.25C8 14.0511 7.92098 13.8603 7.78033 13.7197C7.63968 13.579 7.44891 13.5 7.25 13.5H2.75ZM12.5 14.25C12.5 13.6533 12.7371 13.081 13.159 12.659C13.581 12.2371 14.1533 12 14.75 12H19.25C19.8467 12 20.419 12.2371 20.841 12.659C21.2629 13.081 21.5 13.6533 21.5 14.25V18.75C21.5 19.3467 21.2629 19.919 20.841 20.341C20.419 20.7629 19.8467 21 19.25 21H14.75C14.1533 21 13.581 20.7629 13.159 20.341C12.7371 19.919 12.5 19.3467 12.5 18.75V14.25ZM14.75 13.5C14.5511 13.5 14.3603 13.579 14.2197 13.7197C14.079 13.8603 14 14.0511 14 14.25V18.75C14 18.9489 14.079 19.1397 14.2197 19.2803C14.3603 19.421 14.5511 19.5 14.75 19.5H19.25C19.4489 19.5 19.6397 19.421 19.7803 19.2803C19.921 19.1397 20 18.9489 20 18.75V14.25C20 14.0511 19.921 13.8603 19.7803 13.7197C19.6397 13.579 19.4489 13.5 19.25 13.5H14.75Z" fill="#0B63C5"/>
</svg>
