<svg width="83" height="28" viewBox="0 0 83 28" fill="none" xmlns="http://www.w3.org/2000/svg">
<path fill-rule="evenodd" clip-rule="evenodd" d="M24.3322 17.3348C19.8664 19.6852 14.8298 20.2561 9.75957 20.1889C9.32306 20.1889 9.28948 21.0619 9.52452 21.4313C14.3933 24.2518 22.4519 21.297 27.1527 19.0808C27.9586 18.7115 28.563 19.7188 28.1601 20.5918C25.9104 25.6956 14.9641 28.6505 9.69241 27.8782C5.56237 27.0052 2.60754 25.0912 1.0294 22.1364C-0.0450855 20.1217 -0.0786631 18.4093 0.0556472 16.1596C0.15638 14.4807 0.525733 12.9697 1.26444 11.4587C1.60022 10.7536 2.0703 9.77986 2.50681 9.14188C15.6021 -10.6689 45.3182 6.25421 24.3322 17.3684V17.3348ZM11.2706 10.1492C11.9421 9.27619 12.7815 8.57106 13.5538 8.00025C14.3261 7.46301 14.9977 7.09365 15.7699 6.75788C16.5422 6.45568 17.4153 6.18706 18.2547 6.18706C19.0941 6.18706 19.9 6.48926 20.4708 6.85861C21.0416 7.22796 21.3774 7.63089 21.6124 8.0674C21.8139 8.50391 21.9146 8.90684 21.9146 9.34335C21.9146 9.77986 21.8139 10.2164 21.6124 10.6193C21.3774 11.0222 21.0416 11.358 20.3701 11.7609C19.6985 12.1639 18.6576 12.634 17.6839 13.0033C16.7101 13.3727 15.7364 13.6749 14.7626 13.9099C13.7553 14.1449 12.748 14.3128 11.9757 14.4136C11.2034 14.4807 10.7333 14.4807 10.364 14.2121C9.99461 13.9771 9.79314 13.4734 9.92745 12.7347C10.0618 11.996 10.599 11.0222 11.2706 10.1492Z" fill="#2C65AE"/>
<path fill-rule="evenodd" clip-rule="evenodd" d="M47.77 26.0987C52.1687 26.0987 55.2243 24.4534 57.0039 22.6738L56.1309 21.8007C55.6608 21.3307 55.2243 20.8941 54.8213 20.5248C54.4855 20.189 54.1834 19.8868 53.9147 19.6182C53.6461 19.3496 53.3775 19.1145 53.1424 18.8795C52.7395 18.4766 52.3702 18.1408 52.068 17.8386L51.9337 17.7043C51.2285 18.3422 50.3555 18.8123 49.3146 19.0138C48.7438 19.1817 48.173 19.2488 47.5686 19.2488C44.0429 19.2488 41.2224 16.4955 41.2224 13.0706C41.2224 9.64566 44.0765 6.8923 47.5686 6.8923C48.1394 6.8923 48.7102 6.95946 49.2139 7.09377C50.3219 7.26166 51.2621 7.73174 52.0008 8.40329L52.1015 8.30256C52.4037 8.00036 52.7731 7.66459 53.176 7.26166C53.4111 7.02661 53.6461 6.79157 53.9483 6.52295C54.2169 6.25433 54.5191 5.95213 54.8549 5.61635C55.2578 5.247 55.6943 4.81049 56.1644 4.34041L57.071 3.46739C55.2914 1.6542 52.2359 0.0424805 47.8372 0.0424805C40.0472 0.0424805 34.2383 5.31416 34.2383 13.0706C34.2383 20.8941 40.0472 26.1658 47.8372 26.1658L47.77 26.0987Z" fill="#2966AF"/>
<path fill-rule="evenodd" clip-rule="evenodd" d="M72.9888 26.0987C77.3874 26.0987 80.443 24.4534 82.2226 22.6738L81.3496 21.8007C80.8795 21.3307 80.443 20.8941 80.0401 20.5248C79.7043 20.189 79.4021 19.8868 79.1335 19.6182C78.8649 19.3496 78.5962 19.1145 78.3612 18.8795C77.9583 18.4766 77.5889 18.1408 77.2867 17.8386L77.1524 17.7043C76.4473 18.3422 75.5743 18.8123 74.5334 19.0138C73.9625 19.1817 73.3917 19.2488 72.7873 19.2488C69.2617 19.2488 66.4412 16.4955 66.4412 13.0706C66.4412 9.64566 69.2953 6.8923 72.7873 6.8923C73.3581 6.8923 73.929 6.95946 74.4326 7.09377C75.5407 7.26166 76.4809 7.73174 77.2196 8.40329L77.3203 8.30256C77.6225 8.00036 77.9918 7.66459 78.3948 7.26166C78.6298 7.02661 78.8649 6.79157 79.1671 6.52295C79.4357 6.25433 79.7379 5.95213 80.0737 5.61635C80.4766 5.247 80.9131 4.81049 81.3832 4.34041L82.2898 3.46739C80.5102 1.6542 77.4546 0.0424805 73.0559 0.0424805C65.2659 0.0424805 59.457 5.31416 59.457 13.0706C59.457 20.8941 65.2659 26.1658 73.0559 26.1658L72.9888 26.0987Z" fill="#2C65AE"/>
</svg>
