<svg width="180" height="48" viewBox="0 0 180 48" fill="none" xmlns="http://www.w3.org/2000/svg">
<rect width="180" height="48" rx="12" fill="#0B63C5"/>
<path d="M41.1928 17.228V18.81H37.1188V21.316H40.2408V22.87H37.1188V27H35.1588V17.228H41.1928ZM43.2966 18.32C42.9513 18.32 42.6619 18.2127 42.4286 17.998C42.2046 17.774 42.0926 17.4987 42.0926 17.172C42.0926 16.8453 42.2046 16.5747 42.4286 16.36C42.6619 16.136 42.9513 16.024 43.2966 16.024C43.6419 16.024 43.9266 16.136 44.1506 16.36C44.3839 16.5747 44.5006 16.8453 44.5006 17.172C44.5006 17.4987 44.3839 17.774 44.1506 17.998C43.9266 18.2127 43.6419 18.32 43.2966 18.32ZM44.2626 19.244V27H42.3026V19.244H44.2626ZM47.8791 16.64V27H45.9191V16.64H47.8791ZM56.7456 22.954C56.7456 23.234 56.7269 23.486 56.6896 23.71H51.0196C51.0662 24.27 51.2622 24.7087 51.6076 25.026C51.9529 25.3433 52.3776 25.502 52.8816 25.502C53.6096 25.502 54.1276 25.1893 54.4356 24.564H56.5496C56.3256 25.3107 55.8962 25.9267 55.2616 26.412C54.6269 26.888 53.8476 27.126 52.9236 27.126C52.1769 27.126 51.5049 26.9627 50.9076 26.636C50.3196 26.3 49.8576 25.8287 49.5216 25.222C49.1949 24.6153 49.0316 23.9153 49.0316 23.122C49.0316 22.3193 49.1949 21.6147 49.5216 21.008C49.8482 20.4013 50.3056 19.9347 50.8936 19.608C51.4816 19.2813 52.1582 19.118 52.9236 19.118C53.6609 19.118 54.3189 19.2767 54.8976 19.594C55.4856 19.9113 55.9382 20.364 56.2556 20.952C56.5822 21.5307 56.7456 22.198 56.7456 22.954ZM54.7156 22.394C54.7062 21.89 54.5242 21.4887 54.1696 21.19C53.8149 20.882 53.3809 20.728 52.8676 20.728C52.3822 20.728 51.9716 20.8773 51.6356 21.176C51.3089 21.4653 51.1082 21.8713 51.0336 22.394H54.7156ZM60.4481 23.094C60.4481 22.31 60.6021 21.6147 60.9101 21.008C61.2275 20.4013 61.6521 19.9347 62.1841 19.608C62.7255 19.2813 63.3275 19.118 63.9901 19.118C64.5688 19.118 65.0728 19.2347 65.5021 19.468C65.9408 19.7013 66.2908 19.9953 66.5521 20.35V19.244H68.5261V27H66.5521V25.866C66.3001 26.23 65.9501 26.5333 65.5021 26.776C65.0635 27.0093 64.5548 27.126 63.9761 27.126C63.3228 27.126 62.7255 26.958 62.1841 26.622C61.6521 26.286 61.2275 25.8147 60.9101 25.208C60.6021 24.592 60.4481 23.8873 60.4481 23.094ZM66.5521 23.122C66.5521 22.646 66.4588 22.24 66.2721 21.904C66.0855 21.5587 65.8335 21.2973 65.5161 21.12C65.1988 20.9333 64.8581 20.84 64.4941 20.84C64.1301 20.84 63.7941 20.9287 63.4861 21.106C63.1781 21.2833 62.9261 21.5447 62.7301 21.89C62.5435 22.226 62.4501 22.6273 62.4501 23.094C62.4501 23.5607 62.5435 23.9713 62.7301 24.326C62.9261 24.6713 63.1781 24.9373 63.4861 25.124C63.8035 25.3107 64.1395 25.404 64.4941 25.404C64.8581 25.404 65.1988 25.3153 65.5161 25.138C65.8335 24.9513 66.0855 24.69 66.2721 24.354C66.4588 24.0087 66.5521 23.598 66.5521 23.122ZM72.7404 22.1C72.7404 21.1387 72.955 20.28 73.3844 19.524C73.823 18.7587 74.4157 18.166 75.1624 17.746C75.9184 17.3167 76.763 17.102 77.6964 17.102C78.7884 17.102 79.745 17.382 80.5664 17.942C81.3877 18.502 81.9617 19.2767 82.2884 20.266H80.0344C79.8104 19.7993 79.493 19.4493 79.0824 19.216C78.681 18.9827 78.2144 18.866 77.6824 18.866C77.113 18.866 76.6044 19.0013 76.1564 19.272C75.7177 19.5333 75.3724 19.9067 75.1204 20.392C74.8777 20.8773 74.7564 21.4467 74.7564 22.1C74.7564 22.744 74.8777 23.3133 75.1204 23.808C75.3724 24.2933 75.7177 24.6713 76.1564 24.942C76.6044 25.2033 77.113 25.334 77.6824 25.334C78.2144 25.334 78.681 25.2173 79.0824 24.984C79.493 24.7413 79.8104 24.3867 80.0344 23.92H82.2884C81.9617 24.9187 81.3877 25.698 80.5664 26.258C79.7544 26.8087 78.7977 27.084 77.6964 27.084C76.763 27.084 75.9184 26.874 75.1624 26.454C74.4157 26.0247 73.823 25.432 73.3844 24.676C72.955 23.92 72.7404 23.0613 72.7404 22.1ZM87.1264 27.126C86.3798 27.126 85.7078 26.9627 85.1104 26.636C84.5131 26.3 84.0418 25.8287 83.6964 25.222C83.3604 24.6153 83.1924 23.9153 83.1924 23.122C83.1924 22.3287 83.3651 21.6287 83.7104 21.022C84.0651 20.4153 84.5458 19.9487 85.1524 19.622C85.7591 19.286 86.4358 19.118 87.1824 19.118C87.9291 19.118 88.6058 19.286 89.2124 19.622C89.8191 19.9487 90.2951 20.4153 90.6404 21.022C90.9951 21.6287 91.1724 22.3287 91.1724 23.122C91.1724 23.9153 90.9904 24.6153 90.6264 25.222C90.2718 25.8287 89.7864 26.3 89.1704 26.636C88.5638 26.9627 87.8824 27.126 87.1264 27.126ZM87.1264 25.418C87.4811 25.418 87.8124 25.334 88.1204 25.166C88.4378 24.9887 88.6898 24.7273 88.8764 24.382C89.0631 24.0367 89.1564 23.6167 89.1564 23.122C89.1564 22.3847 88.9604 21.82 88.5684 21.428C88.1858 21.0267 87.7144 20.826 87.1544 20.826C86.5944 20.826 86.1231 21.0267 85.7404 21.428C85.3671 21.82 85.1804 22.3847 85.1804 23.122C85.1804 23.8593 85.3624 24.4287 85.7264 24.83C86.0998 25.222 86.5664 25.418 87.1264 25.418ZM101.962 19.132C102.914 19.132 103.68 19.426 104.258 20.014C104.846 20.5927 105.14 21.4047 105.14 22.45V27H103.18V22.716C103.18 22.1093 103.026 21.6473 102.718 21.33C102.41 21.0033 101.99 20.84 101.458 20.84C100.926 20.84 100.502 21.0033 100.184 21.33C99.8762 21.6473 99.7222 22.1093 99.7222 22.716V27H97.7622V22.716C97.7622 22.1093 97.6082 21.6473 97.3002 21.33C96.9922 21.0033 96.5722 20.84 96.0402 20.84C95.4988 20.84 95.0695 21.0033 94.7522 21.33C94.4442 21.6473 94.2902 22.1093 94.2902 22.716V27H92.3302V19.244H94.2902V20.182C94.5422 19.8553 94.8642 19.5987 95.2562 19.412C95.6575 19.2253 96.0962 19.132 96.5722 19.132C97.1788 19.132 97.7202 19.2627 98.1962 19.524C98.6722 19.776 99.0408 20.14 99.3022 20.616C99.5542 20.168 99.9182 19.8087 100.394 19.538C100.88 19.2673 101.402 19.132 101.962 19.132ZM108.68 20.364C108.932 20.0093 109.277 19.7153 109.716 19.482C110.164 19.2393 110.673 19.118 111.242 19.118C111.905 19.118 112.502 19.2813 113.034 19.608C113.575 19.9347 114 20.4013 114.308 21.008C114.625 21.6053 114.784 22.3007 114.784 23.094C114.784 23.8873 114.625 24.592 114.308 25.208C114 25.8147 113.575 26.286 113.034 26.622C112.502 26.958 111.905 27.126 111.242 27.126C110.673 27.126 110.169 27.0093 109.73 26.776C109.301 26.5427 108.951 26.2487 108.68 25.894V30.696H106.72V19.244H108.68V20.364ZM112.782 23.094C112.782 22.6273 112.684 22.226 112.488 21.89C112.301 21.5447 112.049 21.2833 111.732 21.106C111.424 20.9287 111.088 20.84 110.724 20.84C110.369 20.84 110.033 20.9333 109.716 21.12C109.408 21.2973 109.156 21.5587 108.96 21.904C108.773 22.2493 108.68 22.6553 108.68 23.122C108.68 23.5887 108.773 23.9947 108.96 24.34C109.156 24.6853 109.408 24.9513 109.716 25.138C110.033 25.3153 110.369 25.404 110.724 25.404C111.088 25.404 111.424 25.3107 111.732 25.124C112.049 24.9373 112.301 24.6713 112.488 24.326C112.684 23.9807 112.782 23.57 112.782 23.094ZM117.888 16.64V27H115.928V16.64H117.888ZM119.041 23.094C119.041 22.31 119.195 21.6147 119.503 21.008C119.82 20.4013 120.245 19.9347 120.777 19.608C121.318 19.2813 121.92 19.118 122.583 19.118C123.162 19.118 123.666 19.2347 124.095 19.468C124.534 19.7013 124.884 19.9953 125.145 20.35V19.244H127.119V27H125.145V25.866C124.893 26.23 124.543 26.5333 124.095 26.776C123.656 27.0093 123.148 27.126 122.569 27.126C121.916 27.126 121.318 26.958 120.777 26.622C120.245 26.286 119.82 25.8147 119.503 25.208C119.195 24.592 119.041 23.8873 119.041 23.094ZM125.145 23.122C125.145 22.646 125.052 22.24 124.865 21.904C124.678 21.5587 124.426 21.2973 124.109 21.12C123.792 20.9333 123.451 20.84 123.087 20.84C122.723 20.84 122.387 20.9287 122.079 21.106C121.771 21.2833 121.519 21.5447 121.323 21.89C121.136 22.226 121.043 22.6273 121.043 23.094C121.043 23.5607 121.136 23.9713 121.323 24.326C121.519 24.6713 121.771 24.9373 122.079 25.124C122.396 25.3107 122.732 25.404 123.087 25.404C123.451 25.404 123.792 25.3153 124.109 25.138C124.426 24.9513 124.678 24.69 124.865 24.354C125.052 24.0087 125.145 23.598 125.145 23.122ZM129.747 18.32C129.402 18.32 129.112 18.2127 128.879 17.998C128.655 17.774 128.543 17.4987 128.543 17.172C128.543 16.8453 128.655 16.5747 128.879 16.36C129.112 16.136 129.402 16.024 129.747 16.024C130.092 16.024 130.377 16.136 130.601 16.36C130.834 16.5747 130.951 16.8453 130.951 17.172C130.951 17.4987 130.834 17.774 130.601 17.998C130.377 18.2127 130.092 18.32 129.747 18.32ZM130.713 19.244V27H128.753V19.244H130.713ZM136.668 19.132C137.592 19.132 138.338 19.426 138.908 20.014C139.477 20.5927 139.762 21.4047 139.762 22.45V27H137.802V22.716C137.802 22.1 137.648 21.6287 137.34 21.302C137.032 20.966 136.612 20.798 136.08 20.798C135.538 20.798 135.109 20.966 134.792 21.302C134.484 21.6287 134.33 22.1 134.33 22.716V27H132.37V19.244H134.33V20.21C134.591 19.874 134.922 19.6127 135.324 19.426C135.734 19.23 136.182 19.132 136.668 19.132ZM143.627 20.854V24.606C143.627 24.8673 143.688 25.0587 143.809 25.18C143.94 25.292 144.155 25.348 144.453 25.348H145.363V27H144.131C142.479 27 141.653 26.1973 141.653 24.592V20.854H140.729V19.244H141.653V17.326H143.627V19.244H145.363V20.854H143.627Z" fill="white"/>
</svg>
