<svg width="22" height="23" viewBox="0 0 22 23" fill="none" xmlns="http://www.w3.org/2000/svg">
<path d="M8.08997 8.49999C8.32507 7.83166 8.78912 7.2681 9.39992 6.90912C10.0107 6.55015 10.7289 6.41893 11.4271 6.5387C12.1254 6.65848 12.7588 7.02151 13.215 7.56352C13.6713 8.10552 13.921 8.79151 13.92 9.49999C13.92 11.5 10.92 12.5 10.92 12.5M11 16.5H11.01M1 8.02274V14.9773C1 15.2218 1 15.3441 1.02763 15.4592C1.05213 15.5613 1.09253 15.6588 1.14736 15.7483C1.2092 15.8492 1.29568 15.9357 1.46863 16.1086L6.39137 21.0314C6.56432 21.2043 6.6508 21.2908 6.75172 21.3526C6.84119 21.4075 6.93873 21.4479 7.04077 21.4724C7.15586 21.5 7.27815 21.5 7.52274 21.5H14.4773C14.7218 21.5 14.8441 21.5 14.9592 21.4724C15.0613 21.4479 15.1588 21.4075 15.2483 21.3526C15.3492 21.2908 15.4357 21.2043 15.6086 21.0314L20.5314 16.1086C20.7043 15.9357 20.7908 15.8492 20.8526 15.7483C20.9075 15.6588 20.9479 15.5613 20.9724 15.4592C21 15.3441 21 15.2218 21 14.9773V8.02274C21 7.77815 21 7.65586 20.9724 7.54077C20.9479 7.43873 20.9075 7.34119 20.8526 7.25172C20.7908 7.1508 20.7043 7.06432 20.5314 6.89137L15.6086 1.96863C15.4357 1.79568 15.3492 1.7092 15.2483 1.64736C15.1588 1.59253 15.0613 1.55213 14.9592 1.52763C14.8441 1.5 14.7218 1.5 14.4773 1.5H7.52274C7.27815 1.5 7.15586 1.5 7.04077 1.52763C6.93873 1.55213 6.84119 1.59253 6.75172 1.64736C6.6508 1.7092 6.56432 1.79568 6.39137 1.96863L1.46863 6.89137C1.29568 7.06432 1.2092 7.1508 1.14736 7.25172C1.09253 7.34119 1.05213 7.43873 1.02763 7.54077C1 7.65586 1 7.77815 1 8.02274Z" stroke="#7A797D" stroke-width="2" stroke-linecap="round" stroke-linejoin="round"/>
</svg>
