<svg width="24" height="25" viewBox="0 0 24 25" fill="none" xmlns="http://www.w3.org/2000/svg">
<path fill-rule="evenodd" clip-rule="evenodd" d="M10.3242 20.1648C10.8422 20.7418 11.5072 21.0588 12.1972 21.0588H12.1982C12.8912 21.0588 13.5592 20.7418 14.0782 20.1638C14.3562 19.8568 14.8302 19.8318 15.1372 20.1088C15.4452 20.3858 15.4702 20.8608 15.1932 21.1678C14.3852 22.0648 13.3222 22.5588 12.1982 22.5588H12.1962C11.0752 22.5578 10.0142 22.0638 9.20923 21.1668C8.93223 20.8598 8.95723 20.3848 9.26523 20.1088C9.57323 19.8308 10.0472 19.8558 10.3242 20.1648ZM12.247 1.05884C16.692 1.05884 19.678 4.52084 19.678 7.75384C19.678 9.41684 20.101 10.1218 20.55 10.8698C20.994 11.6078 21.497 12.4458 21.497 14.0298C21.148 18.0768 16.923 18.4068 12.247 18.4068C7.57103 18.4068 3.34503 18.0768 3.00001 14.0938C2.99703 12.4458 3.50003 11.6078 3.94403 10.8698L4.10077 10.606C4.4867 9.9427 4.81603 9.22119 4.81603 7.75384C4.81603 4.52084 7.80203 1.05884 12.247 1.05884ZM12.247 2.55884C8.75203 2.55884 6.31603 5.29684 6.31603 7.75384C6.31603 9.83284 5.73903 10.7938 5.22903 11.6418C4.82003 12.3228 4.49703 12.8608 4.49703 14.0298C4.66403 15.9158 5.90903 16.9068 12.247 16.9068C18.55 16.9068 19.834 15.8718 20 13.9648C19.997 12.8608 19.674 12.3228 19.265 11.6418C18.755 10.7938 18.178 9.83284 18.178 7.75384C18.178 5.29684 15.742 2.55884 12.247 2.55884Z" fill="#999999"/>
</svg>
