<svg width="46" height="46" viewBox="0 0 46 46" fill="none" xmlns="http://www.w3.org/2000/svg">
<path d="M34.4999 19.1667L26.8332 11.5001M4.7915 41.2084L11.2782 40.4876C12.0707 40.3996 12.467 40.3556 12.8374 40.2357C13.166 40.1293 13.4787 39.979 13.767 39.7888C14.092 39.5745 14.374 39.2926 14.9378 38.7287L40.2499 13.4167C42.367 11.2996 42.367 7.86714 40.2499 5.75005C38.1328 3.63296 34.7003 3.63296 32.5832 5.75005L7.27115 31.0621C6.7073 31.6259 6.42538 31.9078 6.21106 32.2329C6.02092 32.5212 5.87062 32.8339 5.76424 33.1625C5.64434 33.5329 5.60031 33.9292 5.51225 34.7217L4.7915 41.2084Z" stroke="white" stroke-width="5" stroke-linecap="round" stroke-linejoin="round"/>
</svg>
