<svg width="36" height="36" viewBox="0 0 36 36" fill="none" xmlns="http://www.w3.org/2000/svg">
<path d="M18 3C9.72 3 3 9.72 3 18C3 26.28 9.72 33 18 33C26.28 33 33 26.28 33 18C33 9.72 26.28 3 18 3ZM18 30C11.37 30 6 24.63 6 18C6 11.37 11.37 6 18 6C24.63 6 30 11.37 30 18C30 24.63 24.63 30 18 30Z" fill="#FFB330"/>
<path d="M10.5 20.25C11.7426 20.25 12.75 19.2426 12.75 18C12.75 16.7574 11.7426 15.75 10.5 15.75C9.25736 15.75 8.25 16.7574 8.25 18C8.25 19.2426 9.25736 20.25 10.5 20.25Z" fill="#FFB330"/>
<path d="M18 20.25C19.2426 20.25 20.25 19.2426 20.25 18C20.25 16.7574 19.2426 15.75 18 15.75C16.7574 15.75 15.75 16.7574 15.75 18C15.75 19.2426 16.7574 20.25 18 20.25Z" fill="#FFB330"/>
<path d="M25.5 20.25C26.7426 20.25 27.75 19.2426 27.75 18C27.75 16.7574 26.7426 15.75 25.5 15.75C24.2574 15.75 23.25 16.7574 23.25 18C23.25 19.2426 24.2574 20.25 25.5 20.25Z" fill="#FFB330"/>
</svg>
