<svg width="40" height="40" viewBox="0 0 40 40" fill="none" xmlns="http://www.w3.org/2000/svg">
<g clip-path="url(#clip0_384_150)">
<path d="M33.5837 7.19735C33.3783 7.19735 33.1768 7.11377 33.0315 6.96848C32.8862 6.8232 32.8026 6.62167 32.8026 6.41624C32.8026 6.21081 32.8862 6.00928 33.0315 5.864C33.1768 5.71879 33.3783 5.63513 33.5837 5.63513C33.7892 5.63513 33.9907 5.71871 34.136 5.864C34.2812 6.00928 34.3648 6.21081 34.3648 6.41624C34.3648 6.62245 34.2812 6.8232 34.136 6.96848C33.9907 7.11377 33.7892 7.19735 33.5837 7.19735Z" fill="white"/>
<path d="M19.9994 39.9999C15.8519 40 11.7989 38.7145 8.42185 36.313L3.2606 37.6959C2.99096 37.7681 2.70344 37.6911 2.50605 37.4938C2.30874 37.2965 2.23165 37.0088 2.3039 36.7393L3.68685 31.5781C1.01562 27.8217 -0.274773 23.2284 0.0488406 18.5999C0.384795 13.7963 2.44723 9.27328 5.8563 5.86414C12.6804 -0.959856 23.392 -1.9446 31.3263 3.52277C31.6815 3.76757 31.7711 4.25388 31.5263 4.60913C31.2815 4.96454 30.7951 5.05397 30.4398 4.80917C23.1264 -0.230535 13.2522 0.677737 6.9611 6.96878C0.555076 13.3748 -0.216893 23.687 5.16549 30.9557C5.30718 31.1471 5.35389 31.3928 5.29226 31.6227L4.16309 35.8368L8.3771 34.7076C8.60706 34.6461 8.85271 34.6927 9.04409 34.8343C16.3131 40.2168 26.6253 39.4448 33.0311 33.0388C39.3223 26.7477 40.2305 16.8732 35.1905 9.55964C34.9457 9.20439 35.0352 8.71799 35.3905 8.47319C35.7457 8.22847 36.2321 8.31799 36.4769 8.67316C41.9446 16.6075 40.9601 27.3194 34.1359 34.1435C30.7267 37.5527 26.2038 39.6151 21.4001 39.9511C20.9327 39.9836 20.4651 39.9999 19.9994 39.9999Z" fill="white"/>
<path d="M19.8674 26.1271C18.5066 26.1271 17.4048 25.0253 17.4048 23.671C17.4048 21.095 18.8473 18.7688 21.1695 17.6002C22.1957 17.0837 22.8246 16.0067 22.7718 14.8565C22.7081 13.4719 21.3892 12.1531 20.0047 12.0893C19.1991 12.0528 18.4347 12.3369 17.8541 12.8914C17.5079 13.2221 17.2562 13.6146 17.106 14.0579C16.765 15.0647 15.8345 15.7481 14.7905 15.7584V15.7585C14.7823 15.7586 14.7741 15.7586 14.7659 15.7586C13.9817 15.7586 13.2385 15.3821 12.7737 14.748C12.3033 14.1064 12.1743 13.3071 12.4198 12.5551C12.8155 11.3429 13.52 10.2293 14.4569 9.33436C16.0185 7.84306 18.0682 7.07703 20.2307 7.176C22.1256 7.26309 23.9472 8.08896 25.3597 9.50143C26.7721 10.9139 27.5979 12.7354 27.6851 14.6305C27.8271 17.716 26.1375 20.6063 23.3806 21.9938C22.7284 22.322 22.3233 22.9648 22.3233 23.6711C22.3234 25.0253 21.2217 26.1271 19.8674 26.1271ZM19.862 10.5238C19.9334 10.5238 20.0048 10.5255 20.0767 10.5288C22.2819 10.6302 24.2309 12.5792 24.3323 14.7846C24.4135 16.5496 23.4477 18.2025 21.8718 18.9956C20.08 19.8973 18.967 21.6888 18.967 23.671C18.967 24.1638 19.3679 24.5648 19.8608 24.5648C20.3602 24.5648 20.7611 24.1638 20.7611 23.671C20.7611 22.3707 21.4957 21.1934 22.6783 20.5982C24.8855 19.4874 26.2382 17.1729 26.1246 14.7022C26.0554 13.1971 25.3914 11.7424 24.255 10.6061C23.1186 9.46972 21.6639 8.80578 20.159 8.7365C18.4278 8.65792 16.7858 9.27038 15.536 10.4641C14.7742 11.1916 14.2254 12.0582 13.905 13.0399C13.8175 13.3077 13.8645 13.5936 14.0336 13.8243C14.2071 14.0611 14.4734 14.1964 14.7653 14.1964C14.7685 14.1964 14.7711 14.1947 14.7749 14.1963C15.1559 14.1925 15.4981 13.9355 15.6263 13.5567C15.8549 12.8818 16.2522 12.2612 16.775 11.7617C17.6157 10.9589 18.7048 10.5238 19.862 10.5238Z" fill="white"/>
<path d="M19.8641 32.8398C18.508 32.8398 17.4048 31.7365 17.4048 30.3805C17.4048 29.0244 18.508 27.9212 19.8641 27.9212C21.2202 27.9212 22.3234 29.0244 22.3234 30.3805C22.3234 31.7365 21.2202 32.8398 19.8641 32.8398ZM19.8641 29.4834C19.3694 29.4834 18.967 29.8858 18.967 30.3805C18.967 30.8751 19.3694 31.2776 19.8641 31.2776C20.3588 31.2776 20.7612 30.8751 20.7612 30.3805C20.7612 29.8858 20.3588 29.4834 19.8641 29.4834Z" fill="white"/>
</g>
<defs>
<clipPath id="clip0_384_150">
<rect width="40" height="40" fill="white"/>
</clipPath>
</defs>
</svg>
