<svg width="1440" height="710" viewBox="0 0 1440 710" fill="none" xmlns="http://www.w3.org/2000/svg">
<path d="M0 0C0 0 443.237 29.6102 728 29.2875C1006.52 28.9719 1440 0 1440 0V710C1440 710 1007.72 670.21 728 669.619C442.072 669.015 0 710 0 710V0Z" fill="#020F1D"/>
<path d="M393.516 265H386.796L371.58 242.008V265H364.86V231.448H371.58L386.796 254.488V231.448H393.516V265ZM411.005 265.432C408.445 265.432 406.141 264.872 404.093 263.752C402.045 262.6 400.429 260.984 399.245 258.904C398.093 256.824 397.517 254.424 397.517 251.704C397.517 248.984 398.109 246.584 399.293 244.504C400.509 242.424 402.157 240.824 404.237 239.704C406.317 238.552 408.637 237.976 411.197 237.976C413.757 237.976 416.077 238.552 418.157 239.704C420.237 240.824 421.869 242.424 423.053 244.504C424.269 246.584 424.877 248.984 424.877 251.704C424.877 254.424 424.253 256.824 423.005 258.904C421.789 260.984 420.125 262.6 418.013 263.752C415.933 264.872 413.597 265.432 411.005 265.432ZM411.005 259.576C412.221 259.576 413.357 259.288 414.413 258.712C415.501 258.104 416.365 257.208 417.005 256.024C417.645 254.84 417.965 253.4 417.965 251.704C417.965 249.176 417.293 247.24 415.949 245.896C414.637 244.52 413.021 243.832 411.101 243.832C409.181 243.832 407.565 244.52 406.253 245.896C404.973 247.24 404.333 249.176 404.333 251.704C404.333 254.232 404.957 256.184 406.205 257.56C407.485 258.904 409.085 259.576 411.005 259.576ZM436.671 243.928V256.792C436.671 257.688 436.879 258.344 437.295 258.76C437.743 259.144 438.479 259.336 439.503 259.336H442.623V265H438.399C432.735 265 429.903 262.248 429.903 256.744V243.928H426.735V238.408H429.903V231.832H436.671V238.408H442.623V243.928H436.671ZM467.39 237.976C469.374 237.976 471.118 238.376 472.622 239.176C474.126 239.944 475.31 240.952 476.174 242.2V238.408H482.942V265.192C482.942 267.656 482.446 269.848 481.454 271.768C480.462 273.72 478.974 275.256 476.99 276.376C475.006 277.528 472.606 278.104 469.79 278.104C466.014 278.104 462.91 277.224 460.478 275.464C458.078 273.704 456.718 271.304 456.398 268.264H463.07C463.422 269.48 464.174 270.44 465.326 271.144C466.51 271.88 467.934 272.248 469.598 272.248C471.55 272.248 473.134 271.656 474.35 270.472C475.566 269.32 476.174 267.56 476.174 265.192V261.064C475.31 262.312 474.11 263.352 472.574 264.184C471.07 265.016 469.342 265.432 467.39 265.432C465.15 265.432 463.102 264.856 461.246 263.704C459.39 262.552 457.918 260.936 456.83 258.856C455.774 256.744 455.246 254.328 455.246 251.608C455.246 248.92 455.774 246.536 456.83 244.456C457.918 242.376 459.374 240.776 461.198 239.656C463.054 238.536 465.118 237.976 467.39 237.976ZM476.174 251.704C476.174 250.072 475.854 248.68 475.214 247.528C474.574 246.344 473.71 245.448 472.622 244.84C471.534 244.2 470.366 243.88 469.118 243.88C467.87 243.88 466.718 244.184 465.662 244.792C464.606 245.4 463.742 246.296 463.07 247.48C462.43 248.632 462.11 250.008 462.11 251.608C462.11 253.208 462.43 254.616 463.07 255.832C463.742 257.016 464.606 257.928 465.662 258.568C466.75 259.208 467.902 259.528 469.118 259.528C470.366 259.528 471.534 259.224 472.622 258.616C473.71 257.976 474.574 257.08 475.214 255.928C475.854 254.744 476.174 253.336 476.174 251.704ZM513.265 251.128C513.265 252.088 513.201 252.952 513.073 253.72H493.633C493.793 255.64 494.465 257.144 495.649 258.232C496.833 259.32 498.289 259.864 500.017 259.864C502.513 259.864 504.289 258.792 505.345 256.648H512.593C511.825 259.208 510.353 261.32 508.177 262.984C506.001 264.616 503.329 265.432 500.161 265.432C497.601 265.432 495.297 264.872 493.249 263.752C491.233 262.6 489.649 260.984 488.497 258.904C487.377 256.824 486.817 254.424 486.817 251.704C486.817 248.952 487.377 246.536 488.497 244.456C489.617 242.376 491.185 240.776 493.201 239.656C495.217 238.536 497.537 237.976 500.161 237.976C502.689 237.976 504.945 238.52 506.929 239.608C508.945 240.696 510.497 242.248 511.585 244.264C512.705 246.248 513.265 248.536 513.265 251.128ZM506.305 249.208C506.273 247.48 505.649 246.104 504.433 245.08C503.217 244.024 501.729 243.496 499.969 243.496C498.305 243.496 496.897 244.008 495.745 245.032C494.625 246.024 493.937 247.416 493.681 249.208H506.305ZM525.034 243.928V256.792C525.034 257.688 525.242 258.344 525.658 258.76C526.106 259.144 526.842 259.336 527.866 259.336H530.986V265H526.762C521.098 265 518.266 262.248 518.266 256.744V243.928H515.098V238.408H518.266V231.832H525.034V238.408H530.986V243.928H525.034ZM542.683 243.928V256.792C542.683 257.688 542.891 258.344 543.307 258.76C543.755 259.144 544.491 259.336 545.515 259.336H548.635V265H544.411C538.747 265 535.915 262.248 535.915 256.744V243.928H532.747V238.408H535.915V231.832H542.683V238.408H548.635V243.928H542.683ZM555.917 235.24C554.733 235.24 553.741 234.872 552.941 234.136C552.173 233.368 551.789 232.424 551.789 231.304C551.789 230.184 552.173 229.256 552.941 228.52C553.741 227.752 554.733 227.368 555.917 227.368C557.101 227.368 558.077 227.752 558.845 228.52C559.645 229.256 560.045 230.184 560.045 231.304C560.045 232.424 559.645 233.368 558.845 234.136C558.077 234.872 557.101 235.24 555.917 235.24ZM559.229 238.408V265H552.509V238.408H559.229ZM579.644 238.024C582.812 238.024 585.372 239.032 587.324 241.048C589.276 243.032 590.252 245.816 590.252 249.4V265H583.532V250.312C583.532 248.2 583.004 246.584 581.948 245.464C580.892 244.312 579.452 243.736 577.628 243.736C575.772 243.736 574.3 244.312 573.212 245.464C572.156 246.584 571.628 248.2 571.628 250.312V265H564.908V238.408H571.628V241.72C572.524 240.568 573.66 239.672 575.036 239.032C576.444 238.36 577.98 238.024 579.644 238.024ZM606.098 237.976C608.082 237.976 609.826 238.376 611.33 239.176C612.834 239.944 614.018 240.952 614.882 242.2V238.408H621.65V265.192C621.65 267.656 621.154 269.848 620.162 271.768C619.17 273.72 617.682 275.256 615.698 276.376C613.714 277.528 611.314 278.104 608.498 278.104C604.722 278.104 601.618 277.224 599.186 275.464C596.786 273.704 595.426 271.304 595.106 268.264H601.778C602.13 269.48 602.882 270.44 604.034 271.144C605.218 271.88 606.642 272.248 608.306 272.248C610.258 272.248 611.842 271.656 613.058 270.472C614.274 269.32 614.882 267.56 614.882 265.192V261.064C614.018 262.312 612.818 263.352 611.282 264.184C609.778 265.016 608.05 265.432 606.098 265.432C603.858 265.432 601.81 264.856 599.954 263.704C598.098 262.552 596.626 260.936 595.538 258.856C594.482 256.744 593.954 254.328 593.954 251.608C593.954 248.92 594.482 246.536 595.538 244.456C596.626 242.376 598.082 240.776 599.906 239.656C601.762 238.536 603.826 237.976 606.098 237.976ZM614.882 251.704C614.882 250.072 614.562 248.68 613.922 247.528C613.282 246.344 612.418 245.448 611.33 244.84C610.242 244.2 609.074 243.88 607.826 243.88C606.578 243.88 605.426 244.184 604.37 244.792C603.314 245.4 602.45 246.296 601.778 247.48C601.138 248.632 600.818 250.008 600.818 251.608C600.818 253.208 601.138 254.616 601.778 255.832C602.45 257.016 603.314 257.928 604.37 258.568C605.458 259.208 606.61 259.528 607.826 259.528C609.074 259.528 610.242 259.224 611.33 258.616C612.418 257.976 613.282 257.08 613.922 255.928C614.562 254.744 614.882 253.336 614.882 251.704ZM644.451 242.536C645.315 241.128 646.435 240.024 647.811 239.224C649.219 238.424 650.819 238.024 652.611 238.024V245.08H650.835C648.723 245.08 647.123 245.576 646.035 246.568C644.979 247.56 644.451 249.288 644.451 251.752V265H637.731V238.408H644.451V242.536ZM680.897 251.128C680.897 252.088 680.833 252.952 680.705 253.72H661.265C661.425 255.64 662.097 257.144 663.281 258.232C664.465 259.32 665.921 259.864 667.649 259.864C670.145 259.864 671.921 258.792 672.977 256.648H680.225C679.457 259.208 677.985 261.32 675.809 262.984C673.633 264.616 670.961 265.432 667.793 265.432C665.233 265.432 662.929 264.872 660.881 263.752C658.865 262.6 657.281 260.984 656.129 258.904C655.009 256.824 654.449 254.424 654.449 251.704C654.449 248.952 655.009 246.536 656.129 244.456C657.249 242.376 658.817 240.776 660.833 239.656C662.849 238.536 665.169 237.976 667.793 237.976C670.321 237.976 672.577 238.52 674.561 239.608C676.577 240.696 678.129 242.248 679.217 244.264C680.337 246.248 680.897 248.536 680.897 251.128ZM673.937 249.208C673.905 247.48 673.281 246.104 672.065 245.08C670.849 244.024 669.361 243.496 667.601 243.496C665.937 243.496 664.529 244.008 663.377 245.032C662.257 246.024 661.569 247.416 661.313 249.208H673.937ZM697.034 243.928H692.378V265H685.562V243.928H682.538V238.408H685.562V237.064C685.562 233.8 686.49 231.4 688.346 229.864C690.202 228.328 693.002 227.608 696.746 227.704V233.368C695.114 233.336 693.978 233.608 693.338 234.184C692.698 234.76 692.378 235.8 692.378 237.304V238.408H697.034V243.928ZM725.533 238.408V265H718.765V261.64C717.901 262.792 716.765 263.704 715.357 264.376C713.981 265.016 712.477 265.336 710.845 265.336C708.765 265.336 706.925 264.904 705.325 264.04C703.725 263.144 702.461 261.848 701.533 260.152C700.637 258.424 700.189 256.376 700.189 254.008V238.408H706.909V253.048C706.909 255.16 707.437 256.792 708.493 257.944C709.549 259.064 710.989 259.624 712.813 259.624C714.669 259.624 716.125 259.064 717.181 257.944C718.237 256.792 718.765 255.16 718.765 253.048V238.408H725.533ZM745.94 238.024C749.108 238.024 751.668 239.032 753.62 241.048C755.572 243.032 756.548 245.816 756.548 249.4V265H749.828V250.312C749.828 248.2 749.3 246.584 748.244 245.464C747.188 244.312 745.748 243.736 743.924 243.736C742.068 243.736 740.596 244.312 739.508 245.464C738.452 246.584 737.924 248.2 737.924 250.312V265H731.204V238.408H737.924V241.72C738.82 240.568 739.956 239.672 741.332 239.032C742.74 238.36 744.276 238.024 745.94 238.024ZM760.25 251.608C760.25 248.92 760.778 246.536 761.834 244.456C762.922 242.376 764.394 240.776 766.25 239.656C768.106 238.536 770.17 237.976 772.442 237.976C774.17 237.976 775.818 238.36 777.386 239.128C778.954 239.864 780.202 240.856 781.13 242.104V229.48H787.946V265H781.13V261.064C780.298 262.376 779.13 263.432 777.626 264.232C776.122 265.032 774.378 265.432 772.394 265.432C770.154 265.432 768.106 264.856 766.25 263.704C764.394 262.552 762.922 260.936 761.834 258.856C760.778 256.744 760.25 254.328 760.25 251.608ZM781.178 251.704C781.178 250.072 780.858 248.68 780.218 247.528C779.578 246.344 778.714 245.448 777.626 244.84C776.538 244.2 775.37 243.88 774.122 243.88C772.874 243.88 771.722 244.184 770.666 244.792C769.61 245.4 768.746 246.296 768.074 247.48C767.434 248.632 767.114 250.008 767.114 251.608C767.114 253.208 767.434 254.616 768.074 255.832C768.746 257.016 769.61 257.928 770.666 258.568C771.754 259.208 772.906 259.528 774.122 259.528C775.37 259.528 776.538 259.224 777.626 258.616C778.714 257.976 779.578 257.08 780.218 255.928C780.858 254.744 781.178 253.336 781.178 251.704ZM810.747 242.536C811.611 241.128 812.731 240.024 814.107 239.224C815.515 238.424 817.115 238.024 818.907 238.024V245.08H817.131C815.019 245.08 813.419 245.576 812.331 246.568C811.275 247.56 810.747 249.288 810.747 251.752V265H804.027V238.408H810.747V242.536ZM847.193 251.128C847.193 252.088 847.129 252.952 847.001 253.72H827.561C827.721 255.64 828.393 257.144 829.577 258.232C830.761 259.32 832.217 259.864 833.945 259.864C836.441 259.864 838.217 258.792 839.273 256.648H846.521C845.753 259.208 844.281 261.32 842.105 262.984C839.929 264.616 837.257 265.432 834.089 265.432C831.529 265.432 829.225 264.872 827.177 263.752C825.161 262.6 823.577 260.984 822.425 258.904C821.305 256.824 820.745 254.424 820.745 251.704C820.745 248.952 821.305 246.536 822.425 244.456C823.545 242.376 825.113 240.776 827.129 239.656C829.145 238.536 831.465 237.976 834.089 237.976C836.617 237.976 838.873 238.52 840.857 239.608C842.873 240.696 844.425 242.248 845.513 244.264C846.633 246.248 847.193 248.536 847.193 251.128ZM840.233 249.208C840.201 247.48 839.577 246.104 838.361 245.08C837.145 244.024 835.657 243.496 833.897 243.496C832.233 243.496 830.825 244.008 829.673 245.032C828.553 246.024 827.865 247.416 827.609 249.208H840.233ZM861.314 265.432C859.138 265.432 857.186 265.048 855.458 264.28C853.73 263.48 852.354 262.408 851.33 261.064C850.338 259.72 849.794 258.232 849.698 256.6H856.466C856.594 257.624 857.09 258.472 857.954 259.144C858.85 259.816 859.954 260.152 861.266 260.152C862.546 260.152 863.538 259.896 864.242 259.384C864.978 258.872 865.346 258.216 865.346 257.416C865.346 256.552 864.898 255.912 864.002 255.496C863.138 255.048 861.746 254.568 859.826 254.056C857.842 253.576 856.21 253.08 854.93 252.568C853.682 252.056 852.594 251.272 851.666 250.216C850.77 249.16 850.322 247.736 850.322 245.944C850.322 244.472 850.738 243.128 851.57 241.912C852.434 240.696 853.65 239.736 855.218 239.032C856.818 238.328 858.69 237.976 860.834 237.976C864.002 237.976 866.53 238.776 868.418 240.376C870.306 241.944 871.346 244.072 871.538 246.76H865.106C865.01 245.704 864.562 244.872 863.762 244.264C862.994 243.624 861.954 243.304 860.642 243.304C859.426 243.304 858.482 243.528 857.81 243.976C857.17 244.424 856.85 245.048 856.85 245.848C856.85 246.744 857.298 247.432 858.194 247.912C859.09 248.36 860.482 248.824 862.37 249.304C864.29 249.784 865.874 250.28 867.122 250.792C868.37 251.304 869.442 252.104 870.338 253.192C871.266 254.248 871.746 255.656 871.778 257.416C871.778 258.952 871.346 260.328 870.482 261.544C869.65 262.76 868.434 263.72 866.834 264.424C865.266 265.096 863.426 265.432 861.314 265.432ZM883.054 242.248C883.918 241.032 885.102 240.024 886.606 239.224C888.142 238.392 889.886 237.976 891.838 237.976C894.11 237.976 896.158 238.536 897.982 239.656C899.838 240.776 901.294 242.376 902.35 244.456C903.438 246.504 903.982 248.888 903.982 251.608C903.982 254.328 903.438 256.744 902.35 258.856C901.294 260.936 899.838 262.552 897.982 263.704C896.158 264.856 894.11 265.432 891.838 265.432C889.886 265.432 888.158 265.032 886.654 264.232C885.182 263.432 883.982 262.424 883.054 261.208V277.672H876.334V238.408H883.054V242.248ZM897.118 251.608C897.118 250.008 896.782 248.632 896.11 247.48C895.47 246.296 894.606 245.4 893.518 244.792C892.462 244.184 891.31 243.88 890.062 243.88C888.846 243.88 887.694 244.2 886.606 244.84C885.55 245.448 884.686 246.344 884.014 247.528C883.374 248.712 883.054 250.104 883.054 251.704C883.054 253.304 883.374 254.696 884.014 255.88C884.686 257.064 885.55 257.976 886.606 258.616C887.694 259.224 888.846 259.528 890.062 259.528C891.31 259.528 892.462 259.208 893.518 258.568C894.606 257.928 895.47 257.016 896.11 255.832C896.782 254.648 897.118 253.24 897.118 251.608ZM919.713 265.432C917.153 265.432 914.849 264.872 912.801 263.752C910.753 262.6 909.137 260.984 907.953 258.904C906.801 256.824 906.225 254.424 906.225 251.704C906.225 248.984 906.817 246.584 908.001 244.504C909.217 242.424 910.865 240.824 912.945 239.704C915.025 238.552 917.345 237.976 919.905 237.976C922.465 237.976 924.785 238.552 926.865 239.704C928.945 240.824 930.577 242.424 931.761 244.504C932.977 246.584 933.585 248.984 933.585 251.704C933.585 254.424 932.961 256.824 931.713 258.904C930.497 260.984 928.833 262.6 926.721 263.752C924.641 264.872 922.305 265.432 919.713 265.432ZM919.713 259.576C920.929 259.576 922.065 259.288 923.121 258.712C924.209 258.104 925.073 257.208 925.713 256.024C926.353 254.84 926.673 253.4 926.673 251.704C926.673 249.176 926.001 247.24 924.657 245.896C923.345 244.52 921.729 243.832 919.809 243.832C917.889 243.832 916.273 244.52 914.961 245.896C913.681 247.24 913.041 249.176 913.041 251.704C913.041 254.232 913.665 256.184 914.913 257.56C916.193 258.904 917.793 259.576 919.713 259.576ZM952.291 238.024C955.459 238.024 958.019 239.032 959.971 241.048C961.923 243.032 962.899 245.816 962.899 249.4V265H956.179V250.312C956.179 248.2 955.651 246.584 954.595 245.464C953.539 244.312 952.099 243.736 950.275 243.736C948.419 243.736 946.947 244.312 945.859 245.464C944.803 246.584 944.275 248.2 944.275 250.312V265H937.555V238.408H944.275V241.72C945.171 240.568 946.307 239.672 947.683 239.032C949.091 238.36 950.627 238.024 952.291 238.024ZM978.505 265.432C976.329 265.432 974.377 265.048 972.649 264.28C970.921 263.48 969.545 262.408 968.521 261.064C967.529 259.72 966.985 258.232 966.889 256.6H973.657C973.785 257.624 974.281 258.472 975.145 259.144C976.041 259.816 977.145 260.152 978.457 260.152C979.737 260.152 980.729 259.896 981.433 259.384C982.169 258.872 982.537 258.216 982.537 257.416C982.537 256.552 982.089 255.912 981.193 255.496C980.329 255.048 978.937 254.568 977.017 254.056C975.033 253.576 973.401 253.08 972.121 252.568C970.873 252.056 969.785 251.272 968.857 250.216C967.961 249.16 967.513 247.736 967.513 245.944C967.513 244.472 967.929 243.128 968.761 241.912C969.625 240.696 970.841 239.736 972.409 239.032C974.009 238.328 975.881 237.976 978.025 237.976C981.193 237.976 983.721 238.776 985.609 240.376C987.497 241.944 988.537 244.072 988.729 246.76H982.297C982.201 245.704 981.753 244.872 980.953 244.264C980.185 243.624 979.145 243.304 977.833 243.304C976.617 243.304 975.673 243.528 975.001 243.976C974.361 244.424 974.041 245.048 974.041 245.848C974.041 246.744 974.489 247.432 975.385 247.912C976.281 248.36 977.673 248.824 979.561 249.304C981.481 249.784 983.065 250.28 984.313 250.792C985.561 251.304 986.633 252.104 987.529 253.192C988.457 254.248 988.937 255.656 988.969 257.416C988.969 258.952 988.537 260.328 987.673 261.544C986.841 262.76 985.625 263.72 984.025 264.424C982.457 265.096 980.617 265.432 978.505 265.432ZM1018.25 251.128C1018.25 252.088 1018.18 252.952 1018.05 253.72H998.613C998.773 255.64 999.445 257.144 1000.63 258.232C1001.81 259.32 1003.27 259.864 1005 259.864C1007.49 259.864 1009.27 258.792 1010.33 256.648H1017.57C1016.81 259.208 1015.33 261.32 1013.16 262.984C1010.98 264.616 1008.31 265.432 1005.14 265.432C1002.58 265.432 1000.28 264.872 998.229 263.752C996.213 262.6 994.629 260.984 993.477 258.904C992.357 256.824 991.797 254.424 991.797 251.704C991.797 248.952 992.357 246.536 993.477 244.456C994.597 242.376 996.165 240.776 998.181 239.656C1000.2 238.536 1002.52 237.976 1005.14 237.976C1007.67 237.976 1009.93 238.52 1011.91 239.608C1013.93 240.696 1015.48 242.248 1016.57 244.264C1017.69 246.248 1018.25 248.536 1018.25 251.128ZM1011.29 249.208C1011.25 247.48 1010.63 246.104 1009.41 245.08C1008.2 244.024 1006.71 243.496 1004.95 243.496C1003.29 243.496 1001.88 244.008 1000.73 245.032C999.605 246.024 998.917 247.416 998.661 249.208H1011.29ZM1044.48 265.432C1041.92 265.432 1039.61 264.872 1037.56 263.752C1035.52 262.6 1033.9 260.984 1032.72 258.904C1031.56 256.824 1030.99 254.424 1030.99 251.704C1030.99 248.984 1031.58 246.584 1032.76 244.504C1033.98 242.424 1035.63 240.824 1037.71 239.704C1039.79 238.552 1042.11 237.976 1044.67 237.976C1047.23 237.976 1049.55 238.552 1051.63 239.704C1053.71 240.824 1055.34 242.424 1056.52 244.504C1057.74 246.584 1058.35 248.984 1058.35 251.704C1058.35 254.424 1057.72 256.824 1056.48 258.904C1055.26 260.984 1053.6 262.6 1051.48 263.752C1049.4 264.872 1047.07 265.432 1044.48 265.432ZM1044.48 259.576C1045.69 259.576 1046.83 259.288 1047.88 258.712C1048.97 258.104 1049.84 257.208 1050.48 256.024C1051.12 254.84 1051.44 253.4 1051.44 251.704C1051.44 249.176 1050.76 247.24 1049.42 245.896C1048.11 244.52 1046.49 243.832 1044.57 243.832C1042.65 243.832 1041.04 244.52 1039.72 245.896C1038.44 247.24 1037.8 249.176 1037.8 251.704C1037.8 254.232 1038.43 256.184 1039.68 257.56C1040.96 258.904 1042.56 259.576 1044.48 259.576ZM1069.04 242.536C1069.9 241.128 1071.02 240.024 1072.4 239.224C1073.81 238.424 1075.41 238.024 1077.2 238.024V245.08H1075.42C1073.31 245.08 1071.71 245.576 1070.62 246.568C1069.57 247.56 1069.04 249.288 1069.04 251.752V265H1062.32V238.408H1069.04V242.536ZM563.789 304.536C564.653 303.128 565.773 302.024 567.149 301.224C568.557 300.424 570.157 300.024 571.949 300.024V307.08H570.173C568.061 307.08 566.461 307.576 565.373 308.568C564.317 309.56 563.789 311.288 563.789 313.752V327H557.069V300.408H563.789V304.536ZM600.235 313.128C600.235 314.088 600.171 314.952 600.043 315.72H580.603C580.763 317.64 581.435 319.144 582.619 320.232C583.803 321.32 585.259 321.864 586.987 321.864C589.483 321.864 591.259 320.792 592.315 318.648H599.563C598.795 321.208 597.323 323.32 595.147 324.984C592.971 326.616 590.299 327.432 587.131 327.432C584.571 327.432 582.267 326.872 580.219 325.752C578.203 324.6 576.619 322.984 575.467 320.904C574.347 318.824 573.787 316.424 573.787 313.704C573.787 310.952 574.347 308.536 575.467 306.456C576.587 304.376 578.155 302.776 580.171 301.656C582.187 300.536 584.507 299.976 587.131 299.976C589.659 299.976 591.915 300.52 593.899 301.608C595.915 302.696 597.467 304.248 598.555 306.264C599.675 308.248 600.235 310.536 600.235 313.128ZM593.275 311.208C593.243 309.48 592.619 308.104 591.403 307.08C590.187 306.024 588.699 305.496 586.939 305.496C585.275 305.496 583.867 306.008 582.715 307.032C581.595 308.024 580.907 309.416 580.651 311.208H593.275ZM610.9 304.248C611.764 303.032 612.948 302.024 614.452 301.224C615.988 300.392 617.732 299.976 619.684 299.976C621.956 299.976 624.004 300.536 625.828 301.656C627.684 302.776 629.14 304.376 630.196 306.456C631.284 308.504 631.828 310.888 631.828 313.608C631.828 316.328 631.284 318.744 630.196 320.856C629.14 322.936 627.684 324.552 625.828 325.704C624.004 326.856 621.956 327.432 619.684 327.432C617.732 327.432 616.004 327.032 614.5 326.232C613.028 325.432 611.828 324.424 610.9 323.208V339.672H604.18V300.408H610.9V304.248ZM624.964 313.608C624.964 312.008 624.628 310.632 623.956 309.48C623.316 308.296 622.452 307.4 621.364 306.792C620.308 306.184 619.156 305.88 617.908 305.88C616.692 305.88 615.54 306.2 614.452 306.84C613.396 307.448 612.532 308.344 611.86 309.528C611.22 310.712 610.9 312.104 610.9 313.704C610.9 315.304 611.22 316.696 611.86 317.88C612.532 319.064 613.396 319.976 614.452 320.616C615.54 321.224 616.692 321.528 617.908 321.528C619.156 321.528 620.308 321.208 621.364 320.568C622.452 319.928 623.316 319.016 623.956 317.832C624.628 316.648 624.964 315.24 624.964 313.608ZM642.471 291.48V327H635.751V291.48H642.471ZM646.422 313.608C646.422 310.92 646.95 308.536 648.006 306.456C649.094 304.376 650.55 302.776 652.374 301.656C654.23 300.536 656.294 299.976 658.566 299.976C660.55 299.976 662.278 300.376 663.75 301.176C665.254 301.976 666.454 302.984 667.35 304.2V300.408H674.118V327H667.35V323.112C666.486 324.36 665.286 325.4 663.75 326.232C662.246 327.032 660.502 327.432 658.518 327.432C656.278 327.432 654.23 326.856 652.374 325.704C650.55 324.552 649.094 322.936 648.006 320.856C646.95 318.744 646.422 316.328 646.422 313.608ZM667.35 313.704C667.35 312.072 667.03 310.68 666.39 309.528C665.75 308.344 664.886 307.448 663.798 306.84C662.71 306.2 661.542 305.88 660.294 305.88C659.046 305.88 657.894 306.184 656.838 306.792C655.782 307.4 654.918 308.296 654.246 309.48C653.606 310.632 653.286 312.008 653.286 313.608C653.286 315.208 653.606 316.616 654.246 317.832C654.918 319.016 655.782 319.928 656.838 320.568C657.926 321.208 659.078 321.528 660.294 321.528C661.542 321.528 662.71 321.224 663.798 320.616C664.886 319.976 665.75 319.08 666.39 317.928C667.03 316.744 667.35 315.336 667.35 313.704ZM677.994 313.704C677.994 310.952 678.554 308.552 679.674 306.504C680.794 304.424 682.346 302.824 684.33 301.704C686.314 300.552 688.586 299.976 691.146 299.976C694.442 299.976 697.162 300.808 699.306 302.472C701.482 304.104 702.938 306.408 703.674 309.384H696.426C696.042 308.232 695.386 307.336 694.458 306.696C693.562 306.024 692.442 305.688 691.098 305.688C689.178 305.688 687.658 306.392 686.538 307.8C685.418 309.176 684.858 311.144 684.858 313.704C684.858 316.232 685.418 318.2 686.538 319.608C687.658 320.984 689.178 321.672 691.098 321.672C693.818 321.672 695.594 320.456 696.426 318.024H703.674C702.938 320.904 701.482 323.192 699.306 324.888C697.13 326.584 694.41 327.432 691.146 327.432C688.586 327.432 686.314 326.872 684.33 325.752C682.346 324.6 680.794 323 679.674 320.952C678.554 318.872 677.994 316.456 677.994 313.704ZM732.357 313.128C732.357 314.088 732.293 314.952 732.165 315.72H712.725C712.885 317.64 713.557 319.144 714.741 320.232C715.925 321.32 717.381 321.864 719.109 321.864C721.605 321.864 723.381 320.792 724.437 318.648H731.685C730.917 321.208 729.445 323.32 727.269 324.984C725.093 326.616 722.421 327.432 719.253 327.432C716.693 327.432 714.389 326.872 712.341 325.752C710.325 324.6 708.741 322.984 707.589 320.904C706.469 318.824 705.909 316.424 705.909 313.704C705.909 310.952 706.469 308.536 707.589 306.456C708.709 304.376 710.277 302.776 712.293 301.656C714.309 300.536 716.629 299.976 719.253 299.976C721.781 299.976 724.037 300.52 726.021 301.608C728.037 302.696 729.589 304.248 730.677 306.264C731.797 308.248 732.357 310.536 732.357 313.128ZM725.397 311.208C725.365 309.48 724.741 308.104 723.525 307.08C722.309 306.024 720.821 305.496 719.061 305.496C717.397 305.496 715.989 306.008 714.837 307.032C713.717 308.024 713.029 309.416 712.773 311.208H725.397ZM769.326 300.024C772.59 300.024 775.214 301.032 777.198 303.048C779.214 305.032 780.222 307.816 780.222 311.4V327H773.502V312.312C773.502 310.232 772.974 308.648 771.918 307.56C770.862 306.44 769.422 305.88 767.598 305.88C765.774 305.88 764.318 306.44 763.23 307.56C762.174 308.648 761.646 310.232 761.646 312.312V327H754.926V312.312C754.926 310.232 754.398 308.648 753.342 307.56C752.286 306.44 750.846 305.88 749.022 305.88C747.166 305.88 745.694 306.44 744.606 307.56C743.55 308.648 743.022 310.232 743.022 312.312V327H736.302V300.408H743.022V303.624C743.886 302.504 744.99 301.624 746.334 300.984C747.71 300.344 749.214 300.024 750.846 300.024C752.926 300.024 754.782 300.472 756.414 301.368C758.046 302.232 759.31 303.48 760.206 305.112C761.07 303.576 762.318 302.344 763.95 301.416C765.614 300.488 767.406 300.024 769.326 300.024ZM810.359 313.128C810.359 314.088 810.295 314.952 810.167 315.72H790.727C790.887 317.64 791.559 319.144 792.743 320.232C793.927 321.32 795.383 321.864 797.111 321.864C799.607 321.864 801.383 320.792 802.439 318.648H809.687C808.919 321.208 807.447 323.32 805.271 324.984C803.095 326.616 800.423 327.432 797.255 327.432C794.695 327.432 792.391 326.872 790.343 325.752C788.327 324.6 786.743 322.984 785.591 320.904C784.471 318.824 783.911 316.424 783.911 313.704C783.911 310.952 784.471 308.536 785.591 306.456C786.711 304.376 788.279 302.776 790.295 301.656C792.311 300.536 794.631 299.976 797.255 299.976C799.783 299.976 802.039 300.52 804.023 301.608C806.039 302.696 807.591 304.248 808.679 306.264C809.799 308.248 810.359 310.536 810.359 313.128ZM803.399 311.208C803.367 309.48 802.743 308.104 801.527 307.08C800.311 306.024 798.823 305.496 797.063 305.496C795.399 305.496 793.991 306.008 792.839 307.032C791.719 308.024 791.031 309.416 790.775 311.208H803.399ZM829.04 300.024C832.208 300.024 834.768 301.032 836.72 303.048C838.672 305.032 839.648 307.816 839.648 311.4V327H832.928V312.312C832.928 310.2 832.4 308.584 831.344 307.464C830.288 306.312 828.848 305.736 827.024 305.736C825.168 305.736 823.696 306.312 822.608 307.464C821.552 308.584 821.024 310.2 821.024 312.312V327H814.304V300.408H821.024V303.72C821.92 302.568 823.056 301.672 824.432 301.032C825.84 300.36 827.376 300.024 829.04 300.024ZM852.902 305.928V318.792C852.902 319.688 853.11 320.344 853.526 320.76C853.974 321.144 854.71 321.336 855.734 321.336H858.854V327H854.63C848.966 327 846.134 324.248 846.134 318.744V305.928H842.966V300.408H846.134V293.832H852.902V300.408H858.854V305.928H852.902ZM872.087 292.344C875.415 292.344 878.087 293.256 880.103 295.08C882.151 296.872 883.175 299.352 883.175 302.52C883.175 305.656 882.167 308.056 880.151 309.72C878.135 311.352 875.463 312.168 872.135 312.168L871.943 315.864H866.039L865.799 307.704H867.959C870.743 307.704 872.887 307.336 874.391 306.6C875.895 305.864 876.647 304.52 876.647 302.568C876.647 301.16 876.231 300.04 875.399 299.208C874.599 298.376 873.495 297.96 872.087 297.96C870.615 297.96 869.463 298.36 868.631 299.16C867.831 299.96 867.431 301.064 867.431 302.472H861.095C861.063 300.52 861.479 298.776 862.343 297.24C863.207 295.704 864.471 294.504 866.135 293.64C867.831 292.776 869.815 292.344 872.087 292.344ZM868.967 327.336C867.751 327.336 866.743 326.968 865.943 326.232C865.175 325.464 864.791 324.52 864.791 323.4C864.791 322.28 865.175 321.352 865.943 320.616C866.743 319.848 867.751 319.464 868.967 319.464C870.151 319.464 871.127 319.848 871.895 320.616C872.663 321.352 873.047 322.28 873.047 323.4C873.047 324.52 872.663 325.464 871.895 326.232C871.127 326.968 870.151 327.336 868.967 327.336Z" fill="white"/>
<rect x="582" y="402" width="275" height="72" rx="12" fill="#0B63C5"/>
<path d="M653.142 436.432C653.142 437.164 652.974 437.836 652.638 438.448C652.302 439.048 651.786 439.534 651.09 439.906C650.394 440.278 649.53 440.464 648.498 440.464H646.59V445H643.512V432.364H648.498C649.506 432.364 650.358 432.538 651.054 432.886C651.75 433.234 652.272 433.714 652.62 434.326C652.968 434.938 653.142 435.64 653.142 436.432ZM648.264 438.016C648.852 438.016 649.29 437.878 649.578 437.602C649.866 437.326 650.01 436.936 650.01 436.432C650.01 435.928 649.866 435.538 649.578 435.262C649.29 434.986 648.852 434.848 648.264 434.848H646.59V438.016H648.264ZM658.957 445.144C657.973 445.144 657.085 444.934 656.293 444.514C655.513 444.094 654.895 443.494 654.439 442.714C653.995 441.934 653.773 441.022 653.773 439.978C653.773 438.946 654.001 438.04 654.457 437.26C654.913 436.468 655.537 435.862 656.329 435.442C657.121 435.022 658.009 434.812 658.993 434.812C659.977 434.812 660.865 435.022 661.657 435.442C662.449 435.862 663.073 436.468 663.529 437.26C663.985 438.04 664.213 438.946 664.213 439.978C664.213 441.01 663.979 441.922 663.511 442.714C663.055 443.494 662.425 444.094 661.621 444.514C660.829 444.934 659.941 445.144 658.957 445.144ZM658.957 442.48C659.545 442.48 660.043 442.264 660.451 441.832C660.871 441.4 661.081 440.782 661.081 439.978C661.081 439.174 660.877 438.556 660.469 438.124C660.073 437.692 659.581 437.476 658.993 437.476C658.393 437.476 657.895 437.692 657.499 438.124C657.103 438.544 656.905 439.162 656.905 439.978C656.905 440.782 657.097 441.4 657.481 441.832C657.877 442.264 658.369 442.48 658.957 442.48ZM669.572 445.144C668.696 445.144 667.916 444.994 667.232 444.694C666.548 444.394 666.008 443.986 665.612 443.47C665.216 442.942 664.994 442.354 664.946 441.706H667.988C668.024 442.054 668.186 442.336 668.474 442.552C668.762 442.768 669.116 442.876 669.536 442.876C669.92 442.876 670.214 442.804 670.418 442.66C670.634 442.504 670.742 442.306 670.742 442.066C670.742 441.778 670.592 441.568 670.292 441.436C669.992 441.292 669.506 441.136 668.834 440.968C668.114 440.8 667.514 440.626 667.034 440.446C666.554 440.254 666.14 439.96 665.792 439.564C665.444 439.156 665.27 438.61 665.27 437.926C665.27 437.35 665.426 436.828 665.738 436.36C666.062 435.88 666.53 435.502 667.142 435.226C667.766 434.95 668.504 434.812 669.356 434.812C670.616 434.812 671.606 435.124 672.326 435.748C673.058 436.372 673.478 437.2 673.586 438.232H670.742C670.694 437.884 670.538 437.608 670.274 437.404C670.022 437.2 669.686 437.098 669.266 437.098C668.906 437.098 668.63 437.17 668.438 437.314C668.246 437.446 668.15 437.632 668.15 437.872C668.15 438.16 668.3 438.376 668.6 438.52C668.912 438.664 669.392 438.808 670.04 438.952C670.784 439.144 671.39 439.336 671.858 439.528C672.326 439.708 672.734 440.008 673.082 440.428C673.442 440.836 673.628 441.388 673.64 442.084C673.64 442.672 673.472 443.2 673.136 443.668C672.812 444.124 672.338 444.484 671.714 444.748C671.102 445.012 670.388 445.144 669.572 445.144ZM680.761 442.39V445H679.195C678.079 445 677.209 444.73 676.585 444.19C675.961 443.638 675.649 442.744 675.649 441.508V437.512H674.425V434.956H675.649V432.508H678.727V434.956H680.743V437.512H678.727V441.544C678.727 441.844 678.799 442.06 678.943 442.192C679.087 442.324 679.327 442.39 679.663 442.39H680.761ZM684.958 439.96C684.958 438.928 685.15 438.022 685.534 437.242C685.93 436.462 686.464 435.862 687.136 435.442C687.808 435.022 688.558 434.812 689.386 434.812C690.094 434.812 690.712 434.956 691.24 435.244C691.78 435.532 692.194 435.91 692.482 436.378V434.956H695.56V445H692.482V443.578C692.182 444.046 691.762 444.424 691.222 444.712C690.694 445 690.076 445.144 689.368 445.144C688.552 445.144 687.808 444.934 687.136 444.514C686.464 444.082 685.93 443.476 685.534 442.696C685.15 441.904 684.958 440.992 684.958 439.96ZM692.482 439.978C692.482 439.21 692.266 438.604 691.834 438.16C691.414 437.716 690.898 437.494 690.286 437.494C689.674 437.494 689.152 437.716 688.72 438.16C688.3 438.592 688.09 439.192 688.09 439.96C688.09 440.728 688.3 441.34 688.72 441.796C689.152 442.24 689.674 442.462 690.286 442.462C690.898 442.462 691.414 442.24 691.834 441.796C692.266 441.352 692.482 440.746 692.482 439.978ZM700.359 438.664C700.359 437.416 700.629 436.306 701.169 435.334C701.709 434.35 702.459 433.588 703.419 433.048C704.391 432.496 705.489 432.22 706.713 432.22C708.213 432.22 709.497 432.616 710.565 433.408C711.633 434.2 712.347 435.28 712.707 436.648H709.323C709.071 436.12 708.711 435.718 708.243 435.442C707.787 435.166 707.265 435.028 706.677 435.028C705.729 435.028 704.961 435.358 704.373 436.018C703.785 436.678 703.491 437.56 703.491 438.664C703.491 439.768 703.785 440.65 704.373 441.31C704.961 441.97 705.729 442.3 706.677 442.3C707.265 442.3 707.787 442.162 708.243 441.886C708.711 441.61 709.071 441.208 709.323 440.68H712.707C712.347 442.048 711.633 443.128 710.565 443.92C709.497 444.7 708.213 445.09 706.713 445.09C705.489 445.09 704.391 444.82 703.419 444.28C702.459 443.728 701.709 442.966 701.169 441.994C700.629 441.022 700.359 439.912 700.359 438.664ZM718.804 445.144C717.82 445.144 716.932 444.934 716.14 444.514C715.36 444.094 714.742 443.494 714.286 442.714C713.842 441.934 713.62 441.022 713.62 439.978C713.62 438.946 713.848 438.04 714.304 437.26C714.76 436.468 715.384 435.862 716.176 435.442C716.968 435.022 717.856 434.812 718.84 434.812C719.824 434.812 720.712 435.022 721.504 435.442C722.296 435.862 722.92 436.468 723.376 437.26C723.832 438.04 724.06 438.946 724.06 439.978C724.06 441.01 723.826 441.922 723.358 442.714C722.902 443.494 722.272 444.094 721.468 444.514C720.676 444.934 719.788 445.144 718.804 445.144ZM718.804 442.48C719.392 442.48 719.89 442.264 720.298 441.832C720.718 441.4 720.928 440.782 720.928 439.978C720.928 439.174 720.724 438.556 720.316 438.124C719.92 437.692 719.428 437.476 718.84 437.476C718.24 437.476 717.742 437.692 717.346 438.124C716.95 438.544 716.752 439.162 716.752 439.978C716.752 440.782 716.944 441.4 717.328 441.832C717.724 442.264 718.216 442.48 718.804 442.48ZM738.149 434.848C739.397 434.848 740.387 435.226 741.119 435.982C741.863 436.738 742.235 437.788 742.235 439.132V445H739.175V439.546C739.175 438.898 739.001 438.4 738.653 438.052C738.317 437.692 737.849 437.512 737.249 437.512C736.649 437.512 736.175 437.692 735.827 438.052C735.491 438.4 735.323 438.898 735.323 439.546V445H732.263V439.546C732.263 438.898 732.089 438.4 731.741 438.052C731.405 437.692 730.937 437.512 730.337 437.512C729.737 437.512 729.263 437.692 728.915 438.052C728.579 438.4 728.411 438.898 728.411 439.546V445H725.333V434.956H728.411V436.216C728.723 435.796 729.131 435.466 729.635 435.226C730.139 434.974 730.709 434.848 731.345 434.848C732.101 434.848 732.773 435.01 733.361 435.334C733.961 435.658 734.429 436.12 734.765 436.72C735.113 436.168 735.587 435.718 736.187 435.37C736.787 435.022 737.441 434.848 738.149 434.848ZM747.106 436.378C747.406 435.91 747.82 435.532 748.348 435.244C748.876 434.956 749.494 434.812 750.202 434.812C751.03 434.812 751.78 435.022 752.452 435.442C753.124 435.862 753.652 436.462 754.036 437.242C754.432 438.022 754.63 438.928 754.63 439.96C754.63 440.992 754.432 441.904 754.036 442.696C753.652 443.476 753.124 444.082 752.452 444.514C751.78 444.934 751.03 445.144 750.202 445.144C749.506 445.144 748.888 445 748.348 444.712C747.82 444.424 747.406 444.052 747.106 443.596V449.788H744.028V434.956H747.106V436.378ZM751.498 439.96C751.498 439.192 751.282 438.592 750.85 438.16C750.43 437.716 749.908 437.494 749.284 437.494C748.672 437.494 748.15 437.716 747.718 438.16C747.298 438.604 747.088 439.21 747.088 439.978C747.088 440.746 747.298 441.352 747.718 441.796C748.15 442.24 748.672 442.462 749.284 442.462C749.896 442.462 750.418 442.24 750.85 441.796C751.282 441.34 751.498 440.728 751.498 439.96ZM758.962 431.68V445H755.884V431.68H758.962ZM760.221 439.96C760.221 438.928 760.413 438.022 760.797 437.242C761.193 436.462 761.727 435.862 762.399 435.442C763.071 435.022 763.821 434.812 764.649 434.812C765.357 434.812 765.975 434.956 766.503 435.244C767.043 435.532 767.457 435.91 767.745 436.378V434.956H770.823V445H767.745V443.578C767.445 444.046 767.025 444.424 766.485 444.712C765.957 445 765.339 445.144 764.631 445.144C763.815 445.144 763.071 444.934 762.399 444.514C761.727 444.082 761.193 443.476 760.797 442.696C760.413 441.904 760.221 440.992 760.221 439.96ZM767.745 439.978C767.745 439.21 767.529 438.604 767.097 438.16C766.677 437.716 766.161 437.494 765.549 437.494C764.937 437.494 764.415 437.716 763.983 438.16C763.563 438.592 763.353 439.192 763.353 439.96C763.353 440.728 763.563 441.34 763.983 441.796C764.415 442.24 764.937 442.462 765.549 442.462C766.161 442.462 766.677 442.24 767.097 441.796C767.529 441.352 767.745 440.746 767.745 439.978ZM774.238 433.912C773.698 433.912 773.254 433.756 772.906 433.444C772.57 433.12 772.402 432.724 772.402 432.256C772.402 431.776 772.57 431.38 772.906 431.068C773.254 430.744 773.698 430.582 774.238 430.582C774.766 430.582 775.198 430.744 775.534 431.068C775.882 431.38 776.056 431.776 776.056 432.256C776.056 432.724 775.882 433.12 775.534 433.444C775.198 433.756 774.766 433.912 774.238 433.912ZM775.768 434.956V445H772.69V434.956H775.768ZM783.758 434.848C784.934 434.848 785.87 435.232 786.566 436C787.274 436.756 787.628 437.8 787.628 439.132V445H784.568V439.546C784.568 438.874 784.394 438.352 784.046 437.98C783.698 437.608 783.23 437.422 782.642 437.422C782.054 437.422 781.586 437.608 781.238 437.98C780.89 438.352 780.716 438.874 780.716 439.546V445H777.638V434.956H780.716V436.288C781.028 435.844 781.448 435.496 781.976 435.244C782.504 434.98 783.098 434.848 783.758 434.848ZM795.005 442.39V445H793.439C792.323 445 791.453 444.73 790.829 444.19C790.205 443.638 789.893 442.744 789.893 441.508V437.512H788.669V434.956H789.893V432.508H792.971V434.956H794.987V437.512H792.971V441.544C792.971 441.844 793.043 442.06 793.187 442.192C793.331 442.324 793.571 442.39 793.907 442.39H795.005Z" fill="white"/>
</svg>
