<svg width="40" height="40" viewBox="0 0 40 40" fill="none" xmlns="http://www.w3.org/2000/svg">
<g clip-path="url(#clip0_384_126)">
<path d="M36.4371 6.90712C30.9336 5.39915 25.3977 3.05111 20.428 0.116894C20.164 -0.0389648 19.8364 -0.0389648 19.5725 0.116894C14.4594 3.1354 9.22266 5.35642 3.56291 6.90712C3.19728 7.00719 2.94385 7.33954 2.94385 7.71868V16.316C2.94385 25.1693 7.02814 31.0296 10.4545 34.3867C14.1433 38.0012 18.4401 40 20.0002 40C21.5601 40 25.857 38.0012 29.5457 34.3867C32.9721 31.0297 37.0561 25.1694 37.0561 16.316V7.7186C37.0561 7.33954 36.8027 7.00719 36.4371 6.90712ZM35.3733 16.3159C35.3733 24.5849 31.5639 30.0532 28.3679 33.1846C24.7405 36.7389 20.8622 38.3171 20.0002 38.3171C19.1383 38.3171 15.2597 36.7389 11.6322 33.1846C8.43634 30.0532 4.62674 24.5849 4.62674 16.3159V8.35735C10.0391 6.82063 15.0795 4.67603 20.0004 1.81642C24.7983 4.60017 30.0903 6.85141 35.3733 8.35703V16.3159Z" fill="white"/>
<path d="M12.542 8.26319C12.3717 7.83077 11.8832 7.61835 11.4507 7.78874C9.9476 8.381 8.40479 8.92616 6.86518 9.40913C6.51432 9.51928 6.27557 9.84428 6.27557 10.2119V13.4612C6.27557 13.9259 6.65237 14.3026 7.11698 14.3026C7.58159 14.3026 7.95838 13.9259 7.95838 13.4612V10.8269C9.33955 10.38 10.7192 9.88569 12.0676 9.35436C12.5 9.18413 12.7124 8.69561 12.542 8.26319Z" fill="white"/>
<path d="M14.1404 8.4228C14.2533 8.4228 14.3679 8.40006 14.4778 8.3521L14.4933 8.34538C14.919 8.15881 15.1107 7.66327 14.9241 7.23772C14.7374 6.81202 14.2391 6.61944 13.8138 6.80585L13.8002 6.8117C13.3743 6.99772 13.182 7.49288 13.368 7.91866C13.506 8.23475 13.8158 8.4228 14.1404 8.4228Z" fill="white"/>
<path d="M30.0251 27.1314C29.6363 26.8773 29.1149 26.9866 28.8604 27.3756C28.1671 28.4368 27.3537 29.4531 26.4424 30.3958C25.693 31.171 24.881 31.8935 24.0289 32.5431C23.6594 32.8248 23.5883 33.3528 23.87 33.7224C24.0357 33.9395 24.2862 34.0537 24.5397 34.0537C24.7176 34.0537 24.8969 33.9975 25.0493 33.8813C25.9684 33.1804 26.8442 32.4013 27.6522 31.5655C28.6374 30.5464 29.5179 29.4464 30.2693 28.296C30.5236 27.907 30.4141 27.3856 30.0251 27.1314Z" fill="white"/>
<path d="M22.0748 33.8627L22.0265 33.8911C21.6244 34.124 21.487 34.6387 21.7198 35.0408C21.8758 35.3104 22.1583 35.4608 22.4488 35.4608C22.5918 35.4608 22.7369 35.4244 22.8695 35.3474L22.9252 35.3147C23.3262 35.0798 23.4609 34.5644 23.226 34.1634C22.9911 33.7625 22.4756 33.6281 22.0748 33.8627Z" fill="white"/>
<path d="M14.2647 18.2827C13.7481 17.766 13.061 17.4817 12.3302 17.4817C11.5994 17.4817 10.9123 17.7661 10.3954 18.2827C9.32874 19.3496 9.32874 21.0856 10.3954 22.1524L15.3638 27.1206C15.8805 27.6372 16.5676 27.9216 17.2985 27.9216C18.0293 27.9216 18.7165 27.6372 19.2333 27.1205L29.6052 16.7485C30.6717 15.6813 30.6717 13.9456 29.605 12.8792C29.0883 12.3624 28.4012 12.0781 27.6703 12.0781C26.9394 12.0781 26.2523 12.3625 25.7355 12.8792L17.2984 21.3163L14.2647 18.2827ZM26.9255 14.0692C27.1243 13.8703 27.3889 13.7609 27.6703 13.7609C27.9519 13.7609 28.2163 13.8703 28.4153 14.0692C28.8258 14.4797 28.8258 15.148 28.4151 15.5587L18.0433 25.9306C17.8445 26.1294 17.5799 26.2388 17.2985 26.2388C17.0171 26.2388 16.7525 26.1294 16.5536 25.9306L11.5853 20.9624C11.1746 20.5517 11.1746 19.8834 11.5851 19.4729C11.784 19.2741 12.0487 19.1645 12.3301 19.1645C12.6116 19.1645 12.8761 19.2739 13.0749 19.4727L16.7034 23.1013C16.8613 23.2591 17.0752 23.3477 17.2984 23.3477C17.5216 23.3477 17.7355 23.2591 17.8933 23.1013L26.9255 14.0692Z" fill="white"/>
</g>
<defs>
<clipPath id="clip0_384_126">
<rect width="40" height="40" fill="white"/>
</clipPath>
</defs>
</svg>
