<svg width="40" height="40" viewBox="0 0 40 40" fill="none" xmlns="http://www.w3.org/2000/svg">
<g clip-path="url(#clip0_384_167)">
<path d="M39.7473 0.249517C39.507 0.0106893 39.147 -0.0612638 38.7855 0.0567049L33.7495 1.68803C32.7215 2.0217 32.5067 2.20999 31.7626 2.95405L14.665 20.0513C14.2713 20.0898 13.807 20.2392 13.3284 20.7179L12.2252 21.821L9.91789 19.5149C8.67492 18.2721 6.65258 18.272 5.40898 19.5154C4.21117 20.7158 4.21117 22.822 5.41 24.0237C6.3407 24.9521 7.55891 25.2196 8.73695 24.7761L10.093 26.1322L4.02758 32.1955C2.94914 32.1601 1.91148 32.567 1.14414 33.3367C0.40625 34.0733 0 35.0533 0 36.0965C0 37.1394 0.406172 38.12 1.14375 38.8575C1.90469 39.6184 2.9043 39.9989 3.90391 39.9989C4.90359 39.9989 5.9032 39.6184 6.66422 38.8575C7.43398 38.0876 7.84063 37.0491 7.80555 35.9716L13.8691 29.9083L15.2252 31.2645C14.7812 32.4431 15.0491 33.6606 15.9781 34.5897C16.5786 35.1901 17.4052 35.4903 18.2322 35.4902C19.0591 35.4901 19.8864 35.1898 20.487 34.5892C21.7278 33.3457 21.7277 31.3244 20.4866 30.0835L18.1797 27.7766L19.2838 26.671C19.7627 26.192 19.9122 25.7282 19.9505 25.334L27.471 17.8158C27.6998 17.587 27.6999 17.2161 27.4711 16.9872C27.2424 16.7583 26.8714 16.7583 26.6424 16.9871L19.9266 23.7008L19.8545 20.9757L24.2817 16.5485C24.5105 16.3197 24.5105 15.9487 24.2817 15.7198C24.0529 15.491 23.682 15.4909 23.453 15.7198L19.0259 20.1469L16.2988 20.0747L32.5912 3.78272C33.2573 3.11663 33.3118 3.06217 34.1109 2.8028L38.6787 1.32319L37.1992 5.89061C36.9398 6.68999 36.8853 6.74444 36.2192 7.41045L28.5578 15.0694C28.329 15.2983 28.3289 15.6692 28.5577 15.8981C28.7864 16.127 29.1574 16.127 29.3863 15.8983L37.0477 8.2392C37.7917 7.4953 37.9801 7.28053 38.3139 6.25217L39.9459 1.2142C40.0624 0.849517 39.9882 0.488892 39.7473 0.249517ZM9.42562 32.6944L7.30547 30.5758L8.69969 29.1822L10.8188 31.3012L9.42562 32.6944ZM7.20406 34.9159L5.08352 32.797L6.47672 31.4043L8.59703 33.523L7.20406 34.9159ZM5.83562 38.0288C4.77063 39.0938 3.0375 39.0939 1.97242 38.0288C1.45617 37.5126 1.17188 36.8264 1.17188 36.0965C1.17188 35.3668 1.45602 34.6812 1.97297 34.1651C2.48867 33.6479 3.1782 33.3642 3.89984 33.3642C3.93141 33.3642 3.96305 33.3647 3.99477 33.3658L4.90023 34.2707L3.61805 35.5545C3.38937 35.7835 3.38961 36.1545 3.61859 36.3832C3.73297 36.4974 3.88281 36.5545 4.03266 36.5545C4.18273 36.5545 4.33281 36.4972 4.44727 36.3826L5.7293 35.099L6.63539 36.0044C6.66117 36.7602 6.37555 37.4889 5.83562 38.0288ZM11.6474 30.4726L9.52844 28.3537L10.9216 26.9609L13.0404 29.0797L11.6474 30.4726ZM18.4548 25.8426L17.351 26.948L16.1855 25.7824C15.9566 25.5536 15.5856 25.5536 15.3568 25.7824C15.128 26.0112 15.128 26.3822 15.3568 26.6111L19.658 30.9122C20.4427 31.6968 20.4424 32.975 19.658 33.7611C18.8422 34.577 17.4798 34.434 16.807 33.7611C15.8977 32.8519 16.1894 31.8949 16.4441 31.4054C16.5621 31.1786 16.5194 30.9014 16.3386 30.7205L14.2838 28.6658C14.2837 28.6657 14.2835 28.6655 14.2834 28.6655C14.2834 28.6654 14.2832 28.6652 14.2831 28.6651L9.28094 23.663C9.10023 23.4822 8.82289 23.4396 8.59609 23.5576C8.10656 23.8122 7.14922 24.1037 6.23852 23.1952C5.56687 22.522 5.42422 21.1593 6.23797 20.3437C7.02406 19.5577 8.30313 19.5576 9.0893 20.3438L13.4415 24.6937C13.6702 24.9225 14.0413 24.9224 14.2702 24.6935C14.4989 24.4646 14.4988 24.0937 14.2699 23.8648L13.0539 22.6494L14.157 21.5465C14.4484 21.2549 14.6673 21.2041 14.9699 21.2119L18.6912 21.3104L18.7897 25.0293C18.7977 25.3315 18.7466 25.5507 18.4548 25.8426Z" fill="white"/>
</g>
<defs>
<clipPath id="clip0_384_167">
<rect width="40" height="40" fill="white"/>
</clipPath>
</defs>
</svg>
