<svg width="22" height="22" viewBox="0 0 22 22" fill="none" xmlns="http://www.w3.org/2000/svg">
<path d="M16.9996 9.5V1.5M12.9996 5.5H20.9996M10.2266 12.3631C9.02506 11.1615 8.07627 9.80285 7.38028 8.35323C7.32041 8.22854 7.29048 8.16619 7.26748 8.0873C7.18576 7.80695 7.24446 7.46269 7.41447 7.22526C7.46231 7.15845 7.51947 7.10129 7.63378 6.98698C7.98338 6.63737 8.15819 6.46257 8.27247 6.28679C8.70347 5.6239 8.70347 4.76932 8.27247 4.10643C8.15819 3.93065 7.98338 3.75585 7.63378 3.40624L7.43891 3.21137C6.90747 2.67993 6.64174 2.41421 6.35636 2.26987C5.7888 1.9828 5.11854 1.9828 4.55098 2.26987C4.2656 2.41421 3.99987 2.67993 3.46843 3.21137L3.3108 3.36901C2.78117 3.89863 2.51636 4.16344 2.31411 4.52348C2.08969 4.92298 1.92833 5.54347 1.9297 6.0017C1.93092 6.41464 2.01103 6.69687 2.17124 7.26131C3.03221 10.2947 4.65668 13.1571 7.04466 15.545C9.43264 17.933 12.295 19.5575 15.3284 20.4185C15.8928 20.5787 16.1751 20.6588 16.588 20.66C17.0462 20.6614 17.6667 20.5 18.0662 20.2756C18.4263 20.0733 18.6911 19.8085 19.2207 19.2789L19.3783 19.1213C19.9098 18.5898 20.1755 18.3241 20.3198 18.0387C20.6069 17.4712 20.6069 16.8009 20.3198 16.2333C20.1755 15.948 19.9098 15.6822 19.3783 15.1508L19.1835 14.9559C18.8339 14.6063 18.6591 14.4315 18.4833 14.3172C17.8204 13.8862 16.9658 13.8862 16.3029 14.3172C16.1271 14.4315 15.9523 14.6063 15.6027 14.9559C15.4884 15.0702 15.4313 15.1274 15.3644 15.1752C15.127 15.3453 14.7828 15.404 14.5024 15.3222C14.4235 15.2992 14.3612 15.2693 14.2365 15.2094C12.7869 14.5134 11.4282 13.5646 10.2266 12.3631Z" stroke="#7A797D" stroke-width="2" stroke-linecap="round" stroke-linejoin="round"/>
</svg>
