<svg width="65" height="22" viewBox="0 0 65 22" fill="none" xmlns="http://www.w3.org/2000/svg">
<path fill-rule="evenodd" clip-rule="evenodd" d="M19.1182 13.6202C15.6093 15.467 11.652 15.9155 7.66823 15.8627C7.32526 15.8627 7.29888 16.5487 7.48355 16.8389C11.309 19.055 17.6408 16.7333 21.3343 14.9921C21.9675 14.7019 22.4424 15.4934 22.1258 16.1793C20.3582 20.1894 11.7575 22.5111 7.61546 21.9043C4.37043 21.2183 2.04878 19.7145 0.808812 17.3929C-0.0354243 15.8099 -0.0618067 14.4644 0.0437228 12.6968C0.12287 11.3777 0.413076 10.1905 0.993488 9.00329C1.25731 8.44926 1.62667 7.68417 1.96964 7.18291C12.2588 -8.38269 35.6072 4.91402 19.1182 13.6466V13.6202ZM8.85544 7.97438C9.38308 7.28844 10.0426 6.73441 10.6494 6.28591C11.2562 5.86379 11.7839 5.57358 12.3907 5.30976C12.9975 5.07232 13.6834 4.86126 14.343 4.86126C15.0025 4.86126 15.6357 5.0987 16.0842 5.38891C16.5327 5.67911 16.7965 5.9957 16.9812 6.33867C17.1395 6.68164 17.2186 6.99823 17.2186 7.3412C17.2186 7.68417 17.1395 8.02714 16.9812 8.34373C16.7965 8.66032 16.5327 8.92414 16.0051 9.24073C15.4774 9.55732 14.6596 9.92668 13.8945 10.2169C13.1294 10.5071 12.3643 10.7445 11.5992 10.9292C10.8077 11.1139 10.0163 11.2458 9.40947 11.3249C8.80267 11.3777 8.43332 11.3777 8.14311 11.1666C7.85291 10.982 7.69461 10.5862 7.80014 10.0058C7.90567 9.42541 8.32779 8.66032 8.85544 7.97438Z" fill="white"/>
<path fill-rule="evenodd" clip-rule="evenodd" d="M37.533 20.506C40.9891 20.506 43.3899 19.2133 44.7882 17.815L44.1022 17.1291C43.7329 16.7597 43.3899 16.4167 43.0733 16.1265C42.8095 15.8627 42.5721 15.6253 42.361 15.4142C42.15 15.2032 41.9389 15.0185 41.7542 14.8338C41.4376 14.5172 41.1474 14.2534 40.91 14.016L40.8045 13.9104C40.2504 14.4117 39.5645 14.781 38.7466 14.9393C38.2981 15.0712 37.8496 15.124 37.3747 15.124C34.6046 15.124 32.3885 12.9607 32.3885 10.2697C32.3885 7.57865 34.631 5.4153 37.3747 5.4153C37.8232 5.4153 38.2717 5.46806 38.6675 5.57359C39.5381 5.7055 40.2768 6.07486 40.8572 6.60251L40.9364 6.52336C41.1738 6.28592 41.464 6.02209 41.7806 5.7055C41.9653 5.52083 42.15 5.33615 42.3874 5.12509C42.5985 4.91403 42.8359 4.67659 43.0997 4.41277C43.4163 4.12256 43.7593 3.77959 44.1286 3.41024L44.841 2.7243C43.4427 1.29965 41.0419 0.0332947 37.5858 0.0332947C31.4651 0.0332947 26.9009 4.17533 26.9009 10.2697C26.9009 16.4167 31.4651 20.5588 37.5858 20.5588L37.533 20.506Z" fill="white"/>
<path fill-rule="evenodd" clip-rule="evenodd" d="M57.3462 20.506C60.8023 20.506 63.2031 19.2133 64.6014 17.815L63.9154 17.1291C63.5461 16.7597 63.2031 16.4167 62.8865 16.1265C62.6227 15.8627 62.3852 15.6253 62.1742 15.4142C61.9631 15.2032 61.7521 15.0185 61.5674 14.8338C61.2508 14.5172 60.9606 14.2534 60.7232 14.016L60.6176 13.9104C60.0636 14.4117 59.3777 14.781 58.5598 14.9393C58.1113 15.0712 57.6628 15.124 57.1879 15.124C54.4178 15.124 52.2016 12.9607 52.2016 10.2697C52.2016 7.57865 54.4441 5.4153 57.1879 5.4153C57.6364 5.4153 58.0849 5.46806 58.4806 5.57359C59.3513 5.7055 60.09 6.07486 60.6704 6.60251L60.7495 6.52336C60.987 6.28592 61.2772 6.02209 61.5938 5.7055C61.7784 5.52083 61.9631 5.33615 62.2006 5.12509C62.4116 4.91403 62.6491 4.67659 62.9129 4.41277C63.2295 4.12256 63.5724 3.77959 63.9418 3.41024L64.6541 2.7243C63.2559 1.29965 60.8551 0.0332947 57.399 0.0332947C51.2783 0.0332947 46.7141 4.17533 46.7141 10.2697C46.7141 16.4167 51.2783 20.5588 57.399 20.5588L57.3462 20.506Z" fill="white"/>
</svg>
