<svg width="37" height="36" viewBox="0 0 37 36" fill="none" xmlns="http://www.w3.org/2000/svg">
<path d="M24.5 10.5C24.5 12.0913 23.8679 13.6174 22.7426 14.7426C21.6174 15.8679 20.0913 16.5 18.5 16.5C16.9087 16.5 15.3826 15.8679 14.2574 14.7426C13.1321 13.6174 12.5 12.0913 12.5 10.5C12.5 8.9087 13.1321 7.38258 14.2574 6.25736C15.3826 5.13214 16.9087 4.5 18.5 4.5C20.0913 4.5 21.6174 5.13214 22.7426 6.25736C23.8679 7.38258 24.5 8.9087 24.5 10.5V10.5ZM18.5 21C15.7152 21 13.0445 22.1062 11.0754 24.0754C9.10625 26.0445 8 28.7152 8 31.5H29C29 28.7152 27.8938 26.0445 25.9246 24.0754C23.9555 22.1062 21.2848 21 18.5 21V21Z" stroke="#0A61C1" stroke-width="2" stroke-linecap="round" stroke-linejoin="round"/>
</svg>
