<svg width="36" height="36" viewBox="0 0 36 36" fill="none" xmlns="http://www.w3.org/2000/svg">
<path d="M18.5 13.5C18.5 16.2614 16.2614 18.5 13.5 18.5C10.7386 18.5 8.5 16.2614 8.5 13.5C8.5 10.7386 10.7386 8.5 13.5 8.5C16.2614 8.5 18.5 10.7386 18.5 13.5Z" stroke="#0B63C5" stroke-width="2"/>
<path d="M2.5 28.5C2.5 27.8698 2.80776 27.2438 3.49002 26.6141C4.17908 25.9781 5.18134 25.4082 6.37 24.932C8.74892 23.979 11.6225 23.5 13.5 23.5C15.3775 23.5 18.2511 23.979 20.63 24.932C21.8187 25.4082 22.8209 25.9781 23.51 26.6141C24.1922 27.2438 24.5 27.8698 24.5 28.5V30.5H2.5V28.5ZM23.8819 16.2609C24.7927 14.5161 24.7927 12.4689 23.8819 10.7241L25.0655 9.53333C26.8663 12.0686 26.8475 15.1486 25.093 17.4793L23.8819 16.2609ZM29.0055 21.4862C32.6843 16.6564 32.7105 10.1618 29.0198 5.49946L30.0692 4.45005C34.6509 9.85827 34.627 17.3669 30.082 22.5628L29.0055 21.4862Z" stroke="#0B63C5" stroke-width="2"/>
</svg>
