<svg width="35" height="35" viewBox="0 0 35 35" fill="none" xmlns="http://www.w3.org/2000/svg">
<path d="M22.2123 2.97323L22.4644 3.6H23.14H31.5C33.2494 3.6 34.5 4.86878 34.5 6.2V31.4C34.5 32.7312 33.2494 34 31.5 34H3.5C1.75057 34 0.5 32.7312 0.5 31.4V6.2C0.5 4.86878 1.75057 3.6 3.5 3.6H11.86H12.5356L12.7877 2.97323C13.4657 1.28802 15.2816 0 17.5 0C19.7184 0 21.5343 1.28802 22.2123 2.97323ZM29.5 32.4H30.5V31.4V28.88C30.5 27.5748 29.769 26.5226 28.8358 25.728C27.9016 24.9324 26.6589 24.298 25.3536 23.8046C22.7426 22.8176 19.6229 22.3 17.5 22.3C15.3771 22.3 12.2574 22.8176 9.64642 23.8046C8.34109 24.298 7.09844 24.9324 6.16417 25.728C5.231 26.5226 4.5 27.5748 4.5 28.88V31.4V32.4H5.5H29.5ZM20.5 4.4C20.5 2.76122 19.0506 1.6 17.5 1.6C15.9494 1.6 14.5 2.76122 14.5 4.4C14.5 6.03878 15.9494 7.2 17.5 7.2C19.0506 7.2 20.5 6.03878 20.5 4.4ZM24.5 15.2C24.5 11.5632 21.2706 8.8 17.5 8.8C13.7294 8.8 10.5 11.5632 10.5 15.2C10.5 18.8368 13.7294 21.6 17.5 21.6C21.2706 21.6 24.5 18.8368 24.5 15.2Z" stroke="#0B63C5" stroke-width="2"/>
</svg>
