<svg width="30" height="31" viewBox="0 0 30 31" fill="none" xmlns="http://www.w3.org/2000/svg">
<path d="M17.5 2.95801V8.12118C17.5 8.82125 17.5 9.17128 17.6362 9.43867C17.7561 9.67387 17.9473 9.8651 18.1825 9.98494C18.4499 10.1212 18.7999 10.1212 19.5 10.1212H24.6632M11.25 20.1211L13.75 22.6211L19.375 16.9961M17.5 2.62109H11C8.8998 2.62109 7.8497 2.62109 7.04754 3.02982C6.34193 3.38934 5.76825 3.96302 5.40873 4.66863C5 5.4708 5 6.5209 5 8.62109V21.6211C5 23.7213 5 24.7714 5.40873 25.5736C5.76825 26.2792 6.34193 26.8528 7.04754 27.2124C7.8497 27.6211 8.8998 27.6211 11 27.6211H19C21.1002 27.6211 22.1503 27.6211 22.9525 27.2124C23.6581 26.8528 24.2317 26.2792 24.5913 25.5736C25 24.7714 25 23.7213 25 21.6211V10.1211L17.5 2.62109Z" stroke="white" stroke-width="2" stroke-linecap="round" stroke-linejoin="round"/>
</svg>
