<svg width="24" height="25" viewBox="0 0 24 25" fill="none" xmlns="http://www.w3.org/2000/svg">
<g clip-path="url(#clip0_4259_10168)">
<path d="M5.26644 10.2645C6.19903 7.43863 8.85469 5.40909 12.0002 5.40909C13.6912 5.40909 15.2184 6.00909 16.4184 6.99091L19.9093 3.5C17.7821 1.64545 15.0548 0.5 12.0002 0.5C7.27031 0.5 3.19799 3.1983 1.24023 7.15002L5.26644 10.2645Z" fill="#EA4335"/>
<path d="M16.0415 18.5125C14.9517 19.2162 13.5669 19.5909 12.0008 19.5909C8.8673 19.5909 6.21994 17.5768 5.2778 14.7678L1.23828 17.8349C3.19361 21.7936 7.26582 24.4999 12.0008 24.4999C14.9337 24.4999 17.7362 23.4573 19.835 21.4995L16.0415 18.5125Z" fill="#34A853"/>
<path d="M19.8342 21.4995C22.0292 19.452 23.4545 16.4036 23.4545 12.4999C23.4545 11.7908 23.3455 11.0272 23.1818 10.3181H12V14.9545H18.4364C18.1188 16.5136 17.2663 17.7211 16.0407 18.5125L19.8342 21.4995Z" fill="#4A90E2"/>
<path d="M5.27698 14.7678C5.03833 14.0562 4.90909 13.2936 4.90909 12.4999C4.90909 11.7182 5.03444 10.9667 5.2662 10.2644L1.23999 7.1499C0.436587 8.76031 0 10.5753 0 12.4999C0 14.4194 0.444781 16.23 1.23746 17.8349L5.27698 14.7678Z" fill="#FBBC05"/>
</g>
<defs>
<clipPath id="clip0_4259_10168">
<rect width="24" height="24" fill="white" transform="translate(0 0.5)"/>
</clipPath>
</defs>
</svg>
