<svg width="22" height="22" viewBox="0 0 22 22" fill="none" xmlns="http://www.w3.org/2000/svg">
<path d="M21.183 12.1591H18.1798V9.27289H21.183C21.6342 9.27289 22 8.90747 22 8.45613C22 8.00475 21.6342 7.6391 21.183 7.6391H18.1798V3.63429C18.1798 3.04969 18.0643 2.62061 17.8366 2.35923C17.6201 2.11058 17.3356 1.99487 16.9415 1.99487C16.5655 1.99487 16.2917 2.10978 16.0794 2.35688C15.8543 2.61853 15.7401 3.04841 15.7401 3.63456V7.63959H10.091L7.68911 4.00495C7.48354 3.68058 7.29026 3.37673 7.10256 3.08507C6.93357 2.82241 6.76874 2.60855 6.61305 2.44887C6.47523 2.3075 6.31816 2.19809 6.13445 2.11399C5.96111 2.03486 5.74074 1.99514 5.48003 1.99514C5.1475 1.99514 4.84565 2.08624 4.55661 2.27341C4.27058 2.45854 4.07286 2.68742 3.9521 2.97318C3.84611 3.24475 3.79003 3.66089 3.79003 4.19806V7.63933H0.816718C0.365557 7.63937 0 8.00501 0 8.45635C0 8.90769 0.365557 9.27312 0.816762 9.27312H3.79007V12.1597H0.816762C0.365557 12.1597 0 12.5252 0 12.9767C0 13.4279 0.365557 13.7932 0.816762 13.7932H3.79007V18.3657C3.79007 18.933 3.90928 19.3577 4.14539 19.6276C4.36993 19.8849 4.65462 20.0044 5.04124 20.0044C5.41424 20.0044 5.69672 19.8844 5.93097 19.6266C6.17085 19.3625 6.29218 18.938 6.29218 18.3657V13.7932H11.4039L14.1702 18.035C14.3625 18.3153 14.5611 18.5984 14.7592 18.8759C14.9379 19.1251 15.1329 19.3446 15.3386 19.528C15.5238 19.6939 15.7224 19.8155 15.9289 19.8896C16.1414 19.9662 16.3898 20.005 16.6655 20.005C17.4136 20.005 18.1797 19.7759 18.1797 18.0775V13.7932H21.1829C21.6341 13.7932 21.9999 13.4274 21.9999 12.9762C22 12.525 21.6342 12.1591 21.183 12.1591ZM15.74 9.27285V12.1591H13.0783L11.1712 9.27285H15.74ZM6.29223 5.95646L7.38987 7.6391H6.29223V5.95646ZM6.29223 12.1591V9.27289H8.45569L10.3383 12.1591H6.29223ZM15.74 16.1877L14.1582 13.7932H15.74V16.1877Z" fill="black"/>
</svg>
