<svg width="138" height="137" viewBox="0 0 138 137" fill="none" xmlns="http://www.w3.org/2000/svg">
<path d="M80.4173 12.9553V36.5338C80.4173 39.7308 80.4173 41.3293 81.0395 42.5504C81.5868 43.6244 82.46 44.4977 83.5341 45.045C84.7552 45.6672 86.3537 45.6672 89.5507 45.6672H113.129M69.0007 102.75V68.5001M51.8757 85.6251H86.1257M80.4173 11.4167H50.734C41.1431 11.4167 36.3476 11.4167 32.6844 13.2833C29.4621 14.9251 26.8423 17.5449 25.2005 20.7672C23.334 24.4304 23.334 29.2258 23.334 38.8167V98.1834C23.334 107.774 23.334 112.57 25.2005 116.233C26.8423 119.455 29.4621 122.075 32.6844 123.717C36.3476 125.583 41.1431 125.583 50.734 125.583H87.2673C96.8582 125.583 101.654 125.583 105.317 123.717C108.539 122.075 111.159 119.455 112.801 116.233C114.667 112.57 114.667 107.774 114.667 98.1834V45.6667L80.4173 11.4167Z" stroke="#0B63C5" stroke-width="2.74" stroke-linecap="round" stroke-linejoin="round"/>
</svg>
