<svg width="97" height="97" viewBox="0 0 97 97" fill="none" xmlns="http://www.w3.org/2000/svg">
<rect width="97" height="97" rx="12" fill="#0B63C5"/>
<path d="M60.5004 44.1666L52.8337 36.4999M30.792 66.2083L37.2787 65.4875C38.0712 65.3995 38.4675 65.3554 38.8379 65.2355C39.1665 65.1292 39.4792 64.9789 39.7675 64.7887C40.0925 64.5744 40.3745 64.2925 40.9383 63.7286L66.2504 38.4166C68.3675 36.2995 68.3675 32.867 66.2504 30.7499C64.1333 28.6328 60.7008 28.6328 58.5837 30.7499L33.2716 56.062C32.7078 56.6258 32.4259 56.9077 32.2115 57.2327C32.0214 57.5211 31.8711 57.8338 31.7647 58.1624C31.6448 58.5328 31.6008 58.929 31.5127 59.7216L30.792 66.2083Z" stroke="white" stroke-width="5" stroke-linecap="round" stroke-linejoin="round"/>
</svg>
