<svg width="40" height="40" viewBox="0 0 40 40" fill="none" xmlns="http://www.w3.org/2000/svg">
<g clip-path="url(#clip0_2783_1065)">
<path d="M20.2442 5.14884V0.605842C20.2442 0.383174 20.121 0.179334 19.9188 0.0720935C19.7191 -0.0343287 19.4813 -0.0224585 19.2962 0.101974L6.74539 8.54985C6.57716 8.66527 6.47852 8.85233 6.47852 9.0529C6.47852 9.25387 6.57593 9.44461 6.74539 9.55636L19.2905 18.0018C19.4784 18.1266 19.7133 18.1389 19.916 18.0374C20.112 17.9297 20.2385 17.723 20.2385 17.4995V12.616C22.2143 12.6299 23.8421 12.7146 25.2064 12.878C31.7337 13.6552 33.4795 17.5712 33.5511 17.7378C33.642 17.9641 33.8687 18.1061 34.1098 18.1061C34.1446 18.1061 34.188 18.1049 34.2273 18.0951C34.5089 18.039 34.7148 17.791 34.7148 17.5024C34.7148 7.60965 22.9678 5.5029 20.2442 5.14884Z" fill="#0B63C5"/>
<path d="M33.2518 30.4412L20.7038 21.9975C20.5216 21.8714 20.2838 21.8571 20.0812 21.9594C19.8851 22.0691 19.7619 22.2733 19.7619 22.4972V27.3816C17.7837 27.3665 16.1559 27.2821 14.7945 27.118C8.26425 26.3411 6.51811 22.4256 6.44934 22.259C6.35479 22.0318 6.12926 21.8906 5.89104 21.8906C5.85256 21.8906 5.80999 21.8923 5.7707 21.9021C5.48827 21.9582 5.2832 22.2058 5.2832 22.4956C5.2832 32.3863 17.0289 34.4959 19.7558 34.852V39.3946C19.7558 39.6144 19.8761 39.8207 20.0783 39.9284C20.2781 40.0336 20.5159 40.0221 20.7009 39.8977L33.2518 31.451C33.4196 31.3348 33.5191 31.1485 33.5191 30.9472C33.5195 30.7437 33.4212 30.5522 33.2518 30.4412Z" fill="#0B63C5"/>
</g>
<defs>
<clipPath id="clip0_2783_1065">
<rect width="40" height="40" fill="white"/>
</clipPath>
</defs>
</svg>
