<svg width="24" height="25" viewBox="0 0 24 25" fill="none" xmlns="http://www.w3.org/2000/svg">
<path d="M11.9999 24.4998C18.6273 24.4998 23.9998 19.1273 23.9998 12.4999C23.9998 5.87254 18.6273 0.5 11.9999 0.5C5.37254 0.5 0 5.87254 0 12.4999C0 19.1273 5.37254 24.4998 11.9999 24.4998Z" fill="#55ACEE"/>
<path d="M19.3498 9.12387C18.8356 9.3519 18.2824 9.50613 17.7023 9.57501C18.2946 9.22013 18.7492 8.65862 18.9637 7.98844C18.4095 8.31722 17.7954 8.55573 17.1423 8.68429C16.6191 8.12705 15.8736 7.77881 15.0481 7.77881C13.4643 7.77881 12.1798 9.06334 12.1798 10.6471C12.1798 10.8719 12.2053 11.0908 12.2545 11.3008C9.87065 11.1813 7.75701 10.0394 6.34221 8.30353C6.09536 8.72707 5.95376 9.22013 5.95376 9.74571C5.95376 10.7406 6.46051 11.6189 7.22972 12.1331C6.75977 12.1184 6.31719 11.9894 5.93065 11.774C5.93044 11.7862 5.93044 11.7984 5.93044 11.8104C5.93044 13.2001 6.91956 14.3593 8.23146 14.6226C7.99103 14.6885 7.73712 14.7234 7.47593 14.7234C7.29069 14.7234 7.11122 14.7056 6.93624 14.6723C7.30117 15.8115 8.36024 16.6409 9.61567 16.6642C8.63383 17.4336 7.39722 17.892 6.05301 17.892C5.82199 17.892 5.5931 17.8785 5.36914 17.8518C6.63784 18.6659 8.1459 19.1406 9.76562 19.1406C15.0415 19.1406 17.9267 14.77 17.9267 10.9793C17.9267 10.855 17.9239 10.7312 17.9184 10.6084C18.4792 10.2041 18.9654 9.69907 19.3498 9.12387Z" fill="#F1F2F2"/>
</svg>
