<svg width="28" height="27" viewBox="0 0 28 27" fill="none" xmlns="http://www.w3.org/2000/svg">
<path d="M18.3286 17.4336V20.4845C18.3286 21.705 18.3286 22.3152 18.0911 22.7814C17.8822 23.1914 17.5488 23.5248 17.1388 23.7337C16.6726 23.9712 16.0624 23.9712 14.8419 23.9712H6.56094C5.34048 23.9712 4.73024 23.9712 4.26408 23.7337C3.85404 23.5248 3.52067 23.1914 3.31174 22.7814C3.07422 22.3152 3.07422 21.705 3.07422 20.4845V12.2035C3.07422 10.9831 3.07422 10.3728 3.31174 9.90668C3.52067 9.49663 3.85404 9.16326 4.26408 8.95433C4.73024 8.71681 5.34048 8.71681 6.56095 8.71681H9.61183M13.0986 17.4336H21.3795C22.6 17.4336 23.2102 17.4336 23.6764 17.1961C24.0864 16.9872 24.4198 16.6538 24.6287 16.2438C24.8663 15.7776 24.8663 15.1674 24.8663 13.9469V5.66593C24.8663 4.44546 24.8663 3.83522 24.6287 3.36907C24.4198 2.95902 24.0864 2.62565 23.6764 2.41672C23.2102 2.1792 22.6 2.1792 21.3795 2.1792H13.0986C11.8781 2.1792 11.2679 2.1792 10.8017 2.41672C10.3917 2.62565 10.0583 2.95902 9.84935 3.36907C9.61183 3.83522 9.61183 4.44546 9.61183 5.66593V13.9469C9.61183 15.1674 9.61183 15.7776 9.84935 16.2438C10.0583 16.6538 10.3917 16.9872 10.8017 17.1961C11.2679 17.4336 11.8781 17.4336 13.0986 17.4336Z" stroke="#0B63C5" stroke-width="2.1792" stroke-linecap="round" stroke-linejoin="round"/>
</svg>
