<svg width="28" height="28" viewBox="0 0 28 28" fill="none" xmlns="http://www.w3.org/2000/svg">
<path d="M10.6037 10.4999C10.8779 9.72019 11.4193 9.0627 12.1319 8.64389C12.8445 8.22509 13.6824 8.072 14.497 8.21174C15.3117 8.35147 16.0506 8.77502 16.5829 9.40736C17.1152 10.0397 17.4066 10.84 17.4053 11.6666C17.4053 13.9999 13.9053 15.1666 13.9053 15.1666M13.9987 19.8333H14.0104M2.33203 9.94312V18.0567C2.33203 18.3421 2.33203 18.4848 2.36427 18.619C2.39285 18.7381 2.43998 18.8519 2.50395 18.9562C2.5761 19.074 2.67699 19.1749 2.87877 19.3767L8.62196 25.1198C8.82374 25.3216 8.92463 25.4225 9.04237 25.4947C9.14675 25.5586 9.26055 25.6058 9.37959 25.6343C9.51386 25.6666 9.65654 25.6666 9.9419 25.6666H18.0555C18.3409 25.6666 18.4835 25.6666 18.6178 25.6343C18.7368 25.6058 18.8506 25.5586 18.955 25.4947C19.0728 25.4225 19.1737 25.3216 19.3754 25.1198L25.1186 19.3767C25.3204 19.1749 25.4213 19.074 25.4934 18.9562C25.5574 18.8519 25.6045 18.7381 25.6331 18.619C25.6654 18.4848 25.6654 18.3421 25.6654 18.0567V9.94312C25.6654 9.65776 25.6654 9.51508 25.6331 9.38081C25.6045 9.26177 25.5574 9.14797 25.4934 9.04359C25.4213 8.92585 25.3204 8.82496 25.1186 8.62318L19.3754 2.87999C19.1737 2.67821 19.0728 2.57732 18.955 2.50517C18.8506 2.4412 18.7368 2.39407 18.6178 2.36549C18.4835 2.33325 18.3409 2.33325 18.0555 2.33325H9.9419C9.65654 2.33325 9.51386 2.33325 9.37959 2.36549C9.26055 2.39407 9.14675 2.4412 9.04237 2.50517C8.92463 2.57732 8.82374 2.67821 8.62196 2.87999L2.87877 8.62318C2.67699 8.82496 2.5761 8.92585 2.50395 9.04359C2.43998 9.14797 2.39285 9.26177 2.36427 9.38081C2.33203 9.51508 2.33203 9.65776 2.33203 9.94312Z" stroke="#0B63C5" stroke-width="2" stroke-linecap="round" stroke-linejoin="round"/>
</svg>
