<svg width="42" height="42" viewBox="0 0 42 42" fill="none" xmlns="http://www.w3.org/2000/svg">
<path d="M2.61179 2.61008H19.5118V10.2151C19.5118 10.6817 19.8901 11.06 20.3568 11.06H27.9617V16.975H29.6518V10.2149C29.6518 10.1021 29.6287 9.99179 29.5861 9.88954C29.5432 9.78692 29.4814 9.69454 29.404 9.61715L20.9546 1.16769C20.8772 1.0903 20.7848 1.02851 20.6822 0.985613C20.58 0.942956 20.4696 0.919922 20.3568 0.919922H1.76683C1.30017 0.919922 0.921875 1.29822 0.921875 1.76488V37.2548C0.921875 37.7215 1.30017 38.0998 1.76683 38.0998H18.6668V36.41H2.61179V2.61008ZM21.2018 3.80482L26.767 9.36999H21.2018V3.80482Z" fill="#020D1B"/>
<path d="M30.4967 19.51C24.4394 19.51 19.5117 24.4377 19.5117 30.4949C19.5117 36.5522 24.4394 41.4799 30.4967 41.4799C36.554 41.4799 41.4816 36.5522 41.4816 30.4949C41.4816 24.4377 36.5541 19.51 30.4967 19.51ZM30.4967 39.79C25.3715 39.79 21.2016 35.6203 21.2016 30.4949C21.2016 25.3696 25.3715 21.2 30.4967 21.2C35.6219 21.2 39.7917 25.3697 39.7917 30.4951C39.7917 35.6204 35.622 39.79 30.4967 39.79Z" fill="#020D1B"/>
<path d="M35.1053 29.6498H31.3424V25.8852C31.3424 25.4186 30.9641 25.0403 30.4975 25.0403C30.0308 25.0403 29.6525 25.4186 29.6525 25.8852V29.6498H25.8879C25.4213 29.6498 25.043 30.0281 25.043 30.4948C25.043 30.9614 25.4213 31.3397 25.8879 31.3397H29.6525V35.1043C29.6525 35.571 30.0308 35.9493 30.4975 35.9493C30.9641 35.9493 31.3424 35.571 31.3424 35.1043V31.3399H35.1053C35.572 31.3399 35.9503 30.9616 35.9503 30.4949C35.9504 30.0281 35.5721 29.6498 35.1053 29.6498Z" fill="#020D1B"/>
</svg>
