<svg width="63" height="63" viewBox="0 0 63 63" fill="none" xmlns="http://www.w3.org/2000/svg">
<g clip-path="url(#clip0_3102_4250)">
<path d="M0 31.2007C0 48.4332 13.9676 62.4004 31.1995 62.3999C48.4323 62.4004 62.3999 48.4333 62.3999 31.2007C62.4009 13.9681 48.4323 0 31.1993 0C13.9675 0 0 13.9686 0 31.2007Z" fill="#F1F7FE"/>
<path d="M61.8518 36.9987L44.8519 19.9989L36.0207 11.1677C35.9434 11.0902 35.8508 11.0285 35.7483 10.9856C35.6463 10.943 35.5359 10.9199 35.423 10.9199H16.8332C16.3667 10.9199 15.9883 11.2983 15.9883 11.7649V50.6348C15.9883 50.9208 16.1398 51.1613 16.3572 51.3141C16.4136 51.3943 27.0528 62.0335 27.133 62.0899C27.1449 62.107 27.1633 62.1173 27.1763 62.1332C28.4938 62.3028 29.834 62.3998 31.1976 62.3998C46.4483 62.4002 59.1333 51.4588 61.8518 36.9987Z" fill="#F1F7FE"/>
<g opacity="0.9">
<path d="M46.3425 21.5796C46.2996 21.477 46.2378 21.3846 46.1605 21.3072L36.021 11.1677C35.9436 11.0903 35.8512 11.0285 35.7486 10.9856C35.6464 10.943 35.536 10.9199 35.4232 10.9199H16.8332C16.3666 10.9199 15.9883 11.2982 15.9883 11.7649V50.6348C15.9883 51.1014 16.3666 51.4797 16.8332 51.4797H45.5631C46.0298 51.4797 46.4081 51.1014 46.4081 50.6348V21.905C46.4082 21.7921 46.3852 21.6818 46.3425 21.5796ZM36.2682 13.8048L43.5235 21.06H36.2682V13.8048ZM17.6782 49.7899V12.6101H34.5782V21.9051C34.5782 22.3718 34.9565 22.7501 35.4232 22.7501H44.7182V49.7901H17.6782V49.7899Z" fill="#0B63C5"/>
<path d="M38.8042 27.8201H32.0442C31.5775 27.8201 31.1992 28.1984 31.1992 28.665C31.1992 29.1317 31.5775 29.51 32.0442 29.51H38.8042C39.2709 29.51 39.6492 29.1317 39.6492 28.665C39.6492 28.1984 39.2709 27.8201 38.8042 27.8201Z" fill="#0B63C5"/>
<path d="M38.8042 34.5801H32.0442C31.5775 34.5801 31.1992 34.9584 31.1992 35.425C31.1992 35.8917 31.5775 36.27 32.0442 36.27H38.8042C39.2709 36.27 39.6492 35.8917 39.6492 35.425C39.6492 34.9584 39.2709 34.5801 38.8042 34.5801Z" fill="#0B63C5"/>
<path d="M38.8042 41.3401H32.0442C31.5775 41.3401 31.1992 41.7184 31.1992 42.185C31.1992 42.6517 31.5775 43.03 32.0442 43.03H38.8042C39.2709 43.03 39.6492 42.6517 39.6492 42.185C39.6492 41.7184 39.2709 41.3401 38.8042 41.3401Z" fill="#0B63C5"/>
<path d="M28.0661 24.6875L24.4386 28.3151L22.501 26.3776C22.171 26.0475 21.6363 26.0475 21.3062 26.3776C20.976 26.7076 20.9761 27.2423 21.3062 27.5724L23.8412 30.1074C24.0063 30.2725 24.2225 30.3549 24.4386 30.3549C24.6548 30.3549 24.871 30.2724 25.036 30.1074L29.2611 25.8824C29.5911 25.5523 29.5911 25.0177 29.2611 24.6875C28.931 24.3574 28.3961 24.3575 28.0661 24.6875Z" fill="#0B63C5"/>
<path d="M28.0661 31.4474L24.4386 35.075L22.501 33.1375C22.171 32.8074 21.6363 32.8074 21.3062 33.1375C20.976 33.4675 20.9761 34.0022 21.3062 34.3323L23.8412 36.8673C24.0063 37.0325 24.2225 37.1149 24.4386 37.1149C24.6548 37.1149 24.871 37.0323 25.036 36.8673L29.2611 32.6423C29.5911 32.3123 29.5911 31.7776 29.2611 31.4474C28.9311 31.1175 28.3961 31.1174 28.0661 31.4474Z" fill="#0B63C5"/>
<path d="M28.066 38.2075L24.4385 41.8351L22.501 39.8976C22.1709 39.5675 21.6363 39.5675 21.3061 39.8976C20.9761 40.2276 20.9761 40.7623 21.3061 41.0924L23.8411 43.6274C24.0063 43.7926 24.2225 43.875 24.4385 43.875C24.6548 43.875 24.871 43.7924 25.036 43.6274L29.261 39.4024C29.591 39.0724 29.591 38.5377 29.261 38.2075C28.9311 37.8775 28.3961 37.8774 28.066 38.2075Z" fill="#0B63C5"/>
</g>
</g>
<defs>
<clipPath id="clip0_3102_4250">
<rect width="62.4" height="62.4" fill="white"/>
</clipPath>
</defs>
</svg>
