<svg width="80" height="81" viewBox="0 0 80 81" fill="none" xmlns="http://www.w3.org/2000/svg">
<rect y="0.5" width="80" height="80" rx="27.2" fill="#F1F7FE"/>
<path d="M34.0437 34.875C34.4845 33.6219 35.3546 32.5652 36.4999 31.8921C37.6451 31.219 38.9916 30.973 40.3009 31.1976C41.6102 31.4221 42.7977 32.1028 43.6532 33.1191C44.5087 34.1354 44.9769 35.4216 44.9749 36.75C44.9749 40.5 39.3499 42.375 39.3499 42.375M39.5 49.875H39.5188M20.75 33.9801V47.0199C20.75 47.4785 20.75 47.7078 20.8018 47.9236C20.8477 48.1149 20.9235 48.2978 21.0263 48.4655C21.1423 48.6548 21.3044 48.8169 21.6287 49.1412L30.8588 58.3713C31.1831 58.6956 31.3452 58.8577 31.5345 58.9737C31.7022 59.0765 31.8851 59.1523 32.0764 59.1982C32.2922 59.25 32.5215 59.25 32.9801 59.25H46.0199C46.4785 59.25 46.7078 59.25 46.9236 59.1982C47.1149 59.1523 47.2978 59.0765 47.4655 58.9737C47.6548 58.8577 47.8169 58.6956 48.1412 58.3713L57.3713 49.1412C57.6956 48.8169 57.8577 48.6548 57.9737 48.4655C58.0765 48.2978 58.1523 48.1149 58.1982 47.9236C58.25 47.7078 58.25 47.4785 58.25 47.0199V33.9801C58.25 33.5215 58.25 33.2922 58.1982 33.0764C58.1523 32.8851 58.0765 32.7022 57.9737 32.5345C57.8577 32.3452 57.6956 32.1831 57.3713 31.8588L48.1412 22.6287C47.8169 22.3044 47.6548 22.1423 47.4655 22.0263C47.2978 21.9235 47.1149 21.8477 46.9236 21.8018C46.7078 21.75 46.4785 21.75 46.0199 21.75H32.9801C32.5215 21.75 32.2922 21.75 32.0764 21.8018C31.8851 21.8477 31.7022 21.9235 31.5345 22.0263C31.3452 22.1423 31.1831 22.3044 30.8588 22.6287L21.6287 31.8588C21.3044 32.1831 21.1423 32.3452 21.0263 32.5345C20.9235 32.7022 20.8477 32.8851 20.8018 33.0764C20.75 33.2922 20.75 33.5215 20.75 33.9801Z" stroke="#FFA408" stroke-width="3.75" stroke-linecap="round" stroke-linejoin="round"/>
</svg>
