<svg width="24" height="24" viewBox="0 0 24 24" fill="none" xmlns="http://www.w3.org/2000/svg">
<g clip-path="url(#clip0_3199_5311)">
<path d="M18.1925 5.43897L17.0791 6.86926C19.479 8.73664 20.6761 11.7599 20.2036 14.7601C19.8575 16.9615 18.6746 18.8964 16.873 20.2087C15.0709 21.5202 12.8665 22.0533 10.665 21.7054C6.12049 20.9899 3.00444 16.7106 3.71881 12.1657C4.06492 9.96398 5.24819 8.02894 7.04995 6.71704C8.62304 5.57189 10.5028 5.02188 12.4197 5.13098L10.853 6.77469L12.0153 7.88388L14.4885 5.28736L14.4891 5.28831L15.5971 4.12481L14.4356 3.01681L14.4351 3.01717L11.8395 0.543442L10.7306 1.70694L12.4219 3.31778C10.1229 3.20904 7.87103 3.87779 5.9834 5.25222C3.79039 6.84901 2.35046 9.20411 1.92884 11.8844C1.05917 17.416 4.85158 22.6254 10.3832 23.4959C10.9179 23.5802 11.4523 23.6215 11.9832 23.6215C14.114 23.6215 16.1843 22.9518 17.9396 21.6735C20.1328 20.0765 21.5725 17.7214 21.9942 15.0417C22.5693 11.3908 21.1125 7.71106 18.1925 5.43897Z" fill="#0B63C5"/>
<g clip-path="url(#clip1_3199_5311)">
<path d="M16.2322 14.2998H14.972V13.0887H16.2322C16.4215 13.0887 16.575 12.9353 16.575 12.746C16.575 12.5566 16.4215 12.4031 16.2322 12.4031H14.972V10.7227C14.972 10.4774 14.9236 10.2974 14.828 10.1877C14.7372 10.0834 14.6178 10.0348 14.4524 10.0348C14.2947 10.0348 14.1798 10.083 14.0907 10.1867C13.9963 10.2965 13.9483 10.4769 13.9483 10.7228V12.4033H11.578L10.5701 10.8782C10.4839 10.7421 10.4028 10.6146 10.324 10.4923C10.2531 10.382 10.1839 10.2923 10.1186 10.2253C10.0608 10.166 9.99486 10.1201 9.91777 10.0848C9.84504 10.0516 9.75257 10.0349 9.64318 10.0349C9.50365 10.0349 9.37699 10.0732 9.25571 10.1517C9.13569 10.2294 9.05273 10.3254 9.00206 10.4453C8.95758 10.5593 8.93405 10.7339 8.93405 10.9593V12.4032H7.68645C7.49714 12.4033 7.34375 12.5567 7.34375 12.7461C7.34375 12.9354 7.49714 13.0888 7.68646 13.0888H8.93407V14.3H7.68646C7.49714 14.3 7.34375 14.4534 7.34375 14.6428C7.34375 14.8321 7.49714 14.9854 7.68646 14.9854H8.93407V16.904C8.93407 17.1421 8.98409 17.3203 9.08316 17.4335C9.17738 17.5415 9.29684 17.5916 9.45906 17.5916C9.61557 17.5916 9.7341 17.5413 9.83239 17.4331C9.93305 17.3223 9.98396 17.1442 9.98396 16.904V14.9854H12.1289L13.2896 16.7653C13.3703 16.8829 13.4536 17.0017 13.5367 17.1181C13.6117 17.2227 13.6935 17.3148 13.7798 17.3918C13.8576 17.4614 13.9409 17.5124 14.0275 17.5435C14.1167 17.5756 14.2209 17.5919 14.3366 17.5919C14.6505 17.5919 14.972 17.4958 14.972 16.7831V14.9854H16.2321C16.4215 14.9854 16.5749 14.8319 16.5749 14.6426C16.575 14.4533 16.4215 14.2998 16.2322 14.2998ZM13.9483 13.0887V14.2997H12.8314L12.0312 13.0887H13.9483ZM9.98398 11.6971L10.4446 12.4031H9.98398V11.6971ZM9.98398 14.2998V13.0887H10.8918L11.6817 14.2998H9.98398ZM13.9483 15.9901L13.2845 14.9854H13.9483V15.9901Z" fill="#0B63C5"/>
</g>
</g>
<defs>
<clipPath id="clip0_3199_5311">
<rect width="23.0781" height="23.0781" fill="white" transform="translate(0.421875 0.543396)"/>
</clipPath>
<clipPath id="clip1_3199_5311">
<rect width="9.23123" height="9.23123" fill="white" transform="translate(7.34766 9.19769)"/>
</clipPath>
</defs>
</svg>
